# MagicaVoxel @ Ephtracy

# group
o 

# material
mtllib spec7.mtl
usemtl palette

# normals
vn -1 0 0
vn 1 0 0
vn 0 0 1
vn 0 0 -1
vn 0 -1 0
vn 0 1 0

# texcoords
vt 0.00976562 0.5
vt 0.0332031 0.5
vt 0.0371094 0.5
vt 0.705078 0.5
vt 0.958984 0.5
vt 0.994141 0.5

# verts
v -0.4 1.1 -0.1
v -0.4 1.1 -0.2
v -0.4 1.2 -0.1
v -0.4 1.2 -0.2
v -0.3 0.3 0
v -0.3 0.3 -0.1
v -0.3 0.4 0
v -0.3 0.4 -0.1
v -0.3 0.7 0
v -0.3 0.7 -0.1
v -0.3 0.7 -0.2
v -0.3 0.9 0
v -0.3 0.9 -0.1
v -0.3 0.9 -0.2
v -0.3 1 0
v -0.3 1 -0.1
v -0.3 1 -0.2
v -0.3 1 -0.3
v -0.3 1.1 0.1
v -0.3 1.1 0
v -0.3 1.1 -0.1
v -0.3 1.1 -0.2
v -0.3 1.2 0.1
v -0.3 1.2 0
v -0.3 1.2 -0.1
v -0.3 1.2 -0.2
v -0.3 1.2 -0.3
v -0.3 1.3 0
v -0.3 1.3 -0.1
v -0.2 0 0
v -0.2 0 -0.1
v -0.2 0.1 0
v -0.2 0.1 -0.1
v -0.2 0.3 0.1
v -0.2 0.3 0
v -0.2 0.3 -0.1
v -0.2 0.3 -0.2
v -0.2 0.4 0.1
v -0.2 0.4 0
v -0.2 0.4 -0.1
v -0.2 0.4 -0.2
v -0.2 0.7 0.1
v -0.2 0.7 0
v -0.2 0.7 -0.1
v -0.2 0.7 -0.2
v -0.2 0.7 -0.3
v -0.2 0.8 0.1
v -0.2 0.8 0
v -0.2 0.8 -0.2
v -0.2 0.8 -0.3
v -0.2 0.9 0
v -0.2 0.9 -0.1
v -0.2 0.9 -0.2
v -0.2 1 0.1
v -0.2 1 0
v -0.2 1 -0.2
v -0.2 1 -0.3
v -0.2 1 -0.4
v -0.2 1.1 0.1
v -0.2 1.1 0
v -0.2 1.2 0.2
v -0.2 1.2 0.1
v -0.2 1.2 0
v -0.2 1.2 -0.1
v -0.2 1.2 -0.2
v -0.2 1.2 -0.3
v -0.2 1.2 -0.4
v -0.2 1.3 0.2
v -0.2 1.3 0.1
v -0.2 1.3 0
v -0.2 1.3 -0.1
v -0.2 1.3 -0.3
v -0.1 0.7 0.1
v -0.1 0.7 0
v -0.1 0.8 0.1
v -0.1 0.8 0
v -0.1 1.1 0.2
v -0.1 1.1 0.1
v -0.1 1.2 0.2
v -0.1 1.2 0.1
v -0.1 1.3 -0.1
v -0.1 1.3 -0.2
v -0.1 1.4 -0.1
v -0.1 1.4 -0.2
v 0 0.9 -0.3
v 0 0.9 -0.4
v 0 1 -0.3
v 0 1 -0.4
v 0 1.1 -0.3
v 0 1.1 -0.4
v 0 1.2 0.2
v 0 1.2 0.1
v 0 1.3 0.2
v 0 1.3 0.1
v 0 1.3 0
v 0 1.4 0.1
v 0 1.4 0
v 0.1 0 0
v 0.1 0 -0.1
v 0.1 0.1 0
v 0.1 0.1 -0.1
v 0.1 0.3 0
v 0.1 0.3 -0.1
v 0.1 1.1 0.2
v 0.1 1.1 0.1
v 0.1 1.2 0.2
v 0.1 1.2 0.1
v 0.1 1.2 -0.2
v 0.1 1.2 -0.3
v 0.1 1.3 -0.1
v 0.1 1.3 -0.2
v 0.1 1.3 -0.3
v 0.1 1.4 -0.1
v 0.1 1.4 -0.2
v -0.1 0 0
v -0.1 0 -0.1
v -0.1 0.1 0
v -0.1 0.1 -0.1
v -0.1 0.3 0
v -0.1 0.3 -0.1
v -0.1 0.7 -0.2
v -0.1 0.7 -0.3
v -0.1 0.8 -0.2
v -0.1 0.8 -0.3
v -0.1 1 -0.3
v -0.1 1 -0.4
v -0.1 1.2 0.2
v -0.1 1.2 0.1
v -0.1 1.2 -0.3
v -0.1 1.2 -0.4
v -0.1 1.3 0.2
v -0.1 1.3 0.1
v 0 1.1 0.2
v 0 1.1 0.1
v 0 1.2 0.2
v 0 1.2 0.1
v 0 1.2 -0.2
v 0 1.2 -0.3
v 0 1.3 -0.1
v 0 1.3 -0.2
v 0 1.3 -0.3
v 0 1.4 -0.1
v 0 1.4 -0.2
v 0.1 0.7 0.1
v 0.1 0.7 0
v 0.1 0.8 0.1
v 0.1 0.8 0
v 0.1 0.9 -0.3
v 0.1 0.9 -0.4
v 0.1 1 -0.3
v 0.1 1 -0.4
v 0.1 1.2 0.2
v 0.1 1.2 0.1
v 0.1 1.3 0.2
v 0.1 1.3 0.1
v 0.1 1.3 0
v 0.1 1.4 0.1
v 0.1 1.4 0
v 0.2 0 0
v 0.2 0 -0.1
v 0.2 0.1 0
v 0.2 0.1 -0.1
v 0.2 0.3 0.1
v 0.2 0.3 0
v 0.2 0.3 -0.1
v 0.2 0.3 -0.2
v 0.2 0.4 0.1
v 0.2 0.4 0
v 0.2 0.4 -0.1
v 0.2 0.4 -0.2
v 0.2 0.7 0.1
v 0.2 0.7 0
v 0.2 0.7 -0.1
v 0.2 0.7 -0.2
v 0.2 0.8 0.1
v 0.2 0.8 0
v 0.2 0.8 -0.1
v 0.2 0.8 -0.2
v 0.2 0.8 -0.3
v 0.2 0.9 0
v 0.2 0.9 -0.1
v 0.2 0.9 -0.2
v 0.2 0.9 -0.3
v 0.2 1 0.1
v 0.2 1 0
v 0.2 1 -0.3
v 0.2 1 -0.4
v 0.2 1.1 0.2
v 0.2 1.1 0.1
v 0.2 1.1 0
v 0.2 1.1 -0.3
v 0.2 1.1 -0.4
v 0.2 1.2 0.2
v 0.2 1.2 0.1
v 0.2 1.2 0
v 0.2 1.2 -0.2
v 0.2 1.2 -0.3
v 0.2 1.3 0.1
v 0.2 1.3 0
v 0.2 1.3 -0.1
v 0.2 1.3 -0.2
v 0.2 1.3 -0.3
v 0.2 1.4 -0.1
v 0.2 1.4 -0.2
v 0.3 0.3 0
v 0.3 0.3 -0.1
v 0.3 0.4 0
v 0.3 0.4 -0.1
v 0.3 0.7 0
v 0.3 0.7 -0.1
v 0.3 0.8 -0.1
v 0.3 0.8 -0.2
v 0.3 0.9 0
v 0.3 0.9 -0.1
v 0.3 0.9 -0.2
v 0.3 0.9 -0.3
v 0.3 1 0
v 0.3 1 -0.1
v 0.3 1.1 0.1
v 0.3 1.1 0
v 0.3 1.1 -0.1
v 0.3 1.1 -0.2
v 0.3 1.2 0.1
v 0.3 1.2 0
v 0.3 1.2 -0.1
v 0.3 1.2 -0.2
v 0.3 1.2 -0.3
v 0.3 1.3 0
v 0.3 1.3 -0.1
v 0.3 1.3 -0.2
v 0.4 1.1 -0.1
v 0.4 1.1 -0.2
v 0.4 1.2 -0.1
v 0.4 1.2 -0.2
v -0.2 1.2 0.2
v -0.2 1.3 0.2
v -0.1 1.1 0.2
v -0.1 1.2 0.2
v -0.1 1.3 0.2
v 0 1.1 0.2
v 0 1.2 0.2
v 0 1.3 0.2
v 0.1 1.1 0.2
v 0.1 1.2 0.2
v 0.1 1.3 0.2
v 0.2 1.1 0.2
v 0.2 1.2 0.2
v -0.3 1.1 0.1
v -0.3 1.2 0.1
v -0.2 0.3 0.1
v -0.2 0.4 0.1
v -0.2 0.7 0.1
v -0.2 0.8 0.1
v -0.2 1 0.1
v -0.2 1.1 0.1
v -0.2 1.2 0.1
v -0.1 0.7 0.1
v -0.1 0.8 0.1
v -0.1 1 0.1
v -0.1 1.1 0.1
v -0.1 1.2 0.1
v -0.1 1.3 0.1
v 0 1.1 0.1
v 0 1.2 0.1
v 0 1.3 0.1
v 0 1.4 0.1
v 0.1 0.7 0.1
v 0.1 0.8 0.1
v 0.1 1 0.1
v 0.1 1.1 0.1
v 0.1 1.2 0.1
v 0.1 1.3 0.1
v 0.1 1.4 0.1
v 0.2 0.3 0.1
v 0.2 0.4 0.1
v 0.2 0.7 0.1
v 0.2 0.8 0.1
v 0.2 1 0.1
v 0.2 1.1 0.1
v 0.2 1.2 0.1
v 0.2 1.3 0.1
v 0.3 1.1 0.1
v 0.3 1.2 0.1
v -0.3 0.3 0
v -0.3 0.4 0
v -0.3 0.7 0
v -0.3 0.9 0
v -0.3 1 0
v -0.3 1.1 0
v -0.3 1.2 0
v -0.3 1.3 0
v -0.2 0 0
v -0.2 0.1 0
v -0.2 0.3 0
v -0.2 0.4 0
v -0.2 0.7 0
v -0.2 0.8 0
v -0.2 0.9 0
v -0.2 1 0
v -0.2 1.1 0
v -0.2 1.2 0
v -0.2 1.3 0
v -0.1 0 0
v -0.1 0.1 0
v -0.1 0.3 0
v -0.1 0.7 0
v -0.1 0.8 0
v 0.1 0 0
v 0.1 0.1 0
v 0.1 0.3 0
v 0.1 0.7 0
v 0.1 0.8 0
v 0.2 0 0
v 0.2 0.1 0
v 0.2 0.3 0
v 0.2 0.4 0
v 0.2 0.7 0
v 0.2 0.8 0
v 0.2 0.9 0
v 0.2 1 0
v 0.2 1.1 0
v 0.2 1.2 0
v 0.2 1.3 0
v 0.3 0.3 0
v 0.3 0.4 0
v 0.3 0.7 0
v 0.3 0.9 0
v 0.3 1 0
v 0.3 1.1 0
v 0.3 1.2 0
v 0.3 1.3 0
v -0.4 1.1 -0.1
v -0.4 1.2 -0.1
v -0.3 0.7 -0.1
v -0.3 0.9 -0.1
v -0.3 1.1 -0.1
v -0.3 1.2 -0.1
v -0.2 0.7 -0.1
v -0.2 0.9 -0.1
v -0.1 1.3 -0.1
v -0.1 1.4 -0.1
v 0 1.3 -0.1
v 0 1.4 -0.1
v 0.1 1.3 -0.1
v 0.1 1.4 -0.1
v 0.2 0.8 -0.1
v 0.2 0.9 -0.1
v 0.2 1.3 -0.1
v 0.2 1.4 -0.1
v 0.3 0.8 -0.1
v 0.3 0.9 -0.1
v 0.3 1.1 -0.1
v 0.3 1.2 -0.1
v 0.4 1.1 -0.1
v 0.4 1.2 -0.1
v 0 1.3 0
v 0 1.4 0
v 0.1 1.3 0
v 0.1 1.4 0
v -0.3 0.3 -0.1
v -0.3 0.4 -0.1
v -0.3 0.7 -0.1
v -0.3 1.2 -0.1
v -0.3 1.3 -0.1
v -0.2 0 -0.1
v -0.2 0.1 -0.1
v -0.2 0.3 -0.1
v -0.2 0.4 -0.1
v -0.2 0.7 -0.1
v -0.2 1.2 -0.1
v -0.2 1.3 -0.1
v -0.1 0 -0.1
v -0.1 0.1 -0.1
v -0.1 0.3 -0.1
v 0.1 0 -0.1
v 0.1 0.1 -0.1
v 0.1 0.3 -0.1
v 0.2 0 -0.1
v 0.2 0.1 -0.1
v 0.2 0.3 -0.1
v 0.2 0.4 -0.1
v 0.2 0.7 -0.1
v 0.3 0.3 -0.1
v 0.3 0.4 -0.1
v 0.3 0.7 -0.1
v -0.4 1.1 -0.2
v -0.4 1.2 -0.2
v -0.3 0.7 -0.2
v -0.3 0.9 -0.2
v -0.3 1 -0.2
v -0.3 1.1 -0.2
v -0.3 1.2 -0.2
v -0.2 0.3 -0.2
v -0.2 0.4 -0.2
v -0.2 0.7 -0.2
v -0.2 0.8 -0.2
v -0.2 0.9 -0.2
v -0.2 1 -0.2
v -0.1 0.7 -0.2
v -0.1 0.8 -0.2
v -0.1 1.3 -0.2
v -0.1 1.4 -0.2
v 0 1.2 -0.2
v 0 1.3 -0.2
v 0 1.4 -0.2
v 0.1 0.7 -0.2
v 0.1 0.8 -0.2
v 0.1 1.2 -0.2
v 0.1 1.3 -0.2
v 0.1 1.4 -0.2
v 0.2 0.3 -0.2
v 0.2 0.4 -0.2
v 0.2 0.7 -0.2
v 0.2 0.8 -0.2
v 0.2 0.9 -0.2
v 0.2 1.2 -0.2
v 0.2 1.3 -0.2
v 0.2 1.4 -0.2
v 0.3 0.8 -0.2
v 0.3 0.9 -0.2
v 0.3 1.1 -0.2
v 0.3 1.2 -0.2
v 0.3 1.3 -0.2
v 0.4 1.1 -0.2
v 0.4 1.2 -0.2
v -0.3 1 -0.3
v -0.3 1.2 -0.3
v -0.2 0.7 -0.3
v -0.2 0.8 -0.3
v -0.2 1 -0.3
v -0.2 1.2 -0.3
v -0.2 1.3 -0.3
v -0.1 0.7 -0.3
v -0.1 0.8 -0.3
v -0.1 0.9 -0.3
v -0.1 1 -0.3
v -0.1 1.2 -0.3
v -0.1 1.3 -0.3
v 0 0.9 -0.3
v 0 1 -0.3
v 0 1.1 -0.3
v 0 1.2 -0.3
v 0 1.3 -0.3
v 0.1 0.9 -0.3
v 0.1 1 -0.3
v 0.1 1.1 -0.3
v 0.1 1.2 -0.3
v 0.1 1.3 -0.3
v 0.2 0.8 -0.3
v 0.2 0.9 -0.3
v 0.2 1 -0.3
v 0.2 1.1 -0.3
v 0.2 1.2 -0.3
v 0.2 1.3 -0.3
v 0.3 0.9 -0.3
v 0.3 1.2 -0.3
v -0.2 1 -0.4
v -0.2 1.2 -0.4
v -0.1 1 -0.4
v -0.1 1.2 -0.4
v 0 0.9 -0.4
v 0 1 -0.4
v 0 1.1 -0.4
v 0.1 0.9 -0.4
v 0.1 1 -0.4
v 0.1 1.1 -0.4
v 0.2 1 -0.4
v 0.2 1.1 -0.4
v -0.2 0 0
v -0.1 0 0
v 0.1 0 0
v 0.2 0 0
v -0.2 0 -0.1
v -0.1 0 -0.1
v 0.1 0 -0.1
v 0.2 0 -0.1
v -0.2 0.3 0.1
v 0.2 0.3 0.1
v -0.3 0.3 0
v -0.2 0.3 0
v -0.1 0.3 0
v 0.1 0.3 0
v 0.2 0.3 0
v 0.3 0.3 0
v -0.3 0.3 -0.1
v -0.2 0.3 -0.1
v -0.1 0.3 -0.1
v 0.1 0.3 -0.1
v 0.2 0.3 -0.1
v 0.3 0.3 -0.1
v -0.2 0.3 -0.2
v 0.2 0.3 -0.2
v -0.3 0.7 -0.1
v -0.2 0.7 -0.1
v -0.3 0.7 -0.2
v -0.2 0.7 -0.2
v -0.1 0.7 -0.2
v -0.2 0.7 -0.3
v -0.1 0.7 -0.3
v -0.2 0.8 0.1
v -0.1 0.8 0.1
v 0.1 0.8 0.1
v 0.2 0.8 0.1
v -0.2 0.8 0
v -0.1 0.8 0
v 0.1 0.8 0
v 0.2 0.8 0
v 0.2 0.8 -0.1
v 0.3 0.8 -0.1
v -0.1 0.8 -0.2
v 0.1 0.8 -0.2
v 0.2 0.8 -0.2
v 0.3 0.8 -0.2
v -0.1 0.8 -0.3
v 0.2 0.8 -0.3
v -0.3 0.9 0
v -0.2 0.9 0
v 0.2 0.9 0
v 0.3 0.9 0
v -0.3 0.9 -0.1
v -0.2 0.9 -0.1
v 0.2 0.9 -0.1
v 0.3 0.9 -0.1
v 0.2 0.9 -0.2
v 0.3 0.9 -0.2
v 0 0.9 -0.3
v 0.1 0.9 -0.3
v 0.2 0.9 -0.3
v 0.3 0.9 -0.3
v 0 0.9 -0.4
v 0.1 0.9 -0.4
v -0.3 1 -0.2
v -0.2 1 -0.2
v -0.3 1 -0.3
v -0.2 1 -0.3
v -0.1 1 -0.3
v 0.1 1 -0.3
v 0.2 1 -0.3
v -0.2 1 -0.4
v -0.1 1 -0.4
v 0.1 1 -0.4
v 0.2 1 -0.4
v -0.1 1.1 0.2
v 0 1.1 0.2
v 0.1 1.1 0.2
v 0.2 1.1 0.2
v -0.3 1.1 0.1
v -0.2 1.1 0.1
v -0.1 1.1 0.1
v 0 1.1 0.1
v 0.1 1.1 0.1
v 0.2 1.1 0.1
v 0.3 1.1 0.1
v -0.3 1.1 0
v -0.2 1.1 0
v 0.2 1.1 0
v 0.3 1.1 0
v -0.4 1.1 -0.1
v -0.3 1.1 -0.1
v 0.3 1.1 -0.1
v 0.4 1.1 -0.1
v -0.4 1.1 -0.2
v -0.3 1.1 -0.2
v 0.3 1.1 -0.2
v 0.4 1.1 -0.2
v -0.2 1.2 0.2
v -0.1 1.2 0.2
v 0 1.2 0.2
v 0.1 1.2 0.2
v -0.2 1.2 0.1
v -0.1 1.2 0.1
v 0 1.2 0.1
v 0.1 1.2 0.1
v -0.2 0.7 0.1
v -0.1 0.7 0.1
v 0.1 0.7 0.1
v 0.2 0.7 0.1
v -0.3 0.7 0
v -0.2 0.7 0
v -0.1 0.7 0
v 0.1 0.7 0
v 0.2 0.7 0
v 0.3 0.7 0
v -0.3 0.7 -0.1
v -0.2 0.7 -0.1
v 0.2 0.7 -0.1
v 0.3 0.7 -0.1
v 0 1.1 -0.3
v 0.1 1.1 -0.3
v 0.2 1.1 -0.3
v 0 1.1 -0.4
v 0.1 1.1 -0.4
v 0.2 1.1 -0.4
v -0.1 1.2 0.2
v 0 1.2 0.2
v 0.1 1.2 0.2
v 0.2 1.2 0.2
v -0.3 1.2 0.1
v -0.2 1.2 0.1
v -0.1 1.2 0.1
v 0 1.2 0.1
v 0.1 1.2 0.1
v 0.2 1.2 0.1
v 0.3 1.2 0.1
v -0.3 1.2 0
v -0.2 1.2 0
v 0.2 1.2 0
v 0.3 1.2 0
v -0.4 1.2 -0.1
v -0.3 1.2 -0.1
v -0.2 1.2 -0.1
v 0.3 1.2 -0.1
v 0.4 1.2 -0.1
v -0.4 1.2 -0.2
v -0.3 1.2 -0.2
v -0.2 1.2 -0.2
v 0 1.2 -0.2
v 0.1 1.2 -0.2
v 0.2 1.2 -0.2
v 0.3 1.2 -0.2
v 0.4 1.2 -0.2
v -0.3 1.2 -0.3
v -0.2 1.2 -0.3
v -0.1 1.2 -0.3
v 0 1.2 -0.3
v 0.1 1.2 -0.3
v 0.2 1.2 -0.3
v 0.3 1.2 -0.3
v -0.2 1.2 -0.4
v -0.1 1.2 -0.4
v -0.2 1.3 0.2
v -0.1 1.3 0.2
v 0 1.3 0.2
v 0.1 1.3 0.2
v -0.2 1.3 0.1
v -0.1 1.3 0.1
v 0 1.3 0.1
v 0.1 1.3 0.1
v 0.2 1.3 0.1
v -0.3 1.3 0
v -0.2 1.3 0
v 0 1.3 0
v 0.1 1.3 0
v 0.2 1.3 0
v 0.3 1.3 0
v -0.3 1.3 -0.1
v -0.2 1.3 -0.1
v -0.1 1.3 -0.1
v 0 1.3 -0.1
v 0.1 1.3 -0.1
v 0.2 1.3 -0.1
v 0.3 1.3 -0.1
v -0.1 1.3 -0.2
v 0 1.3 -0.2
v 0.1 1.3 -0.2
v 0.2 1.3 -0.2
v 0.3 1.3 -0.2
v -0.2 1.3 -0.3
v -0.1 1.3 -0.3
v 0 1.3 -0.3
v 0.1 1.3 -0.3
v 0.2 1.3 -0.3
v 0 1.4 0.1
v 0.1 1.4 0.1
v 0 1.4 0
v 0.1 1.4 0
v -0.1 1.4 -0.1
v 0 1.4 -0.1
v 0.1 1.4 -0.1
v 0.2 1.4 -0.1
v -0.1 1.4 -0.2
v 0 1.4 -0.2
v 0.1 1.4 -0.2
v 0.2 1.4 -0.2

# faces
f 3/3/1 2/3/1 1/3/1
f 4/3/1 2/3/1 3/3/1
f 7/2/1 6/2/1 5/2/1
f 8/2/1 6/2/1 7/2/1
f 9/5/1 8/5/1 7/5/1
f 10/5/1 8/5/1 9/5/1
f 13/1/1 11/1/1 10/1/1
f 14/1/1 11/1/1 13/1/1
f 15/2/1 13/2/1 12/2/1
f 16/3/1 14/3/1 13/3/1
f 16/2/1 13/2/1 15/2/1
f 17/3/1 14/3/1 16/3/1
f 20/1/1 16/1/1 15/1/1
f 21/3/1 17/3/1 16/3/1
f 21/1/1 16/1/1 20/1/1
f 22/1/1 18/1/1 17/1/1
f 22/3/1 17/3/1 21/3/1
f 23/1/1 20/1/1 19/1/1
f 23/1/1 21/1/1 20/1/1
f 24/1/1 21/1/1 23/1/1
f 25/1/1 21/1/1 24/1/1
f 26/1/1 18/1/1 22/1/1
f 27/1/1 18/1/1 26/1/1
f 28/1/1 25/1/1 24/1/1
f 29/1/1 25/1/1 28/1/1
f 32/6/1 31/6/1 30/6/1
f 33/6/1 31/6/1 32/6/1
f 35/3/1 33/3/1 32/3/1
f 36/3/1 33/3/1 35/3/1
f 38/3/1 35/3/1 34/3/1
f 39/3/1 35/3/1 38/3/1
f 40/3/1 37/3/1 36/3/1
f 41/3/1 37/3/1 40/3/1
f 42/5/1 39/5/1 38/5/1
f 43/5/1 39/5/1 42/5/1
f 44/5/1 41/5/1 40/5/1
f 45/5/1 41/5/1 44/5/1
f 48/2/1 44/2/1 43/2/1
f 49/1/1 46/1/1 45/1/1
f 50/1/1 46/1/1 49/1/1
f 51/2/1 48/2/1 47/2/1
f 51/2/1 44/2/1 48/2/1
f 52/2/1 44/2/1 51/2/1
f 53/3/1 50/3/1 49/3/1
f 54/2/1 51/2/1 47/2/1
f 55/2/1 51/2/1 54/2/1
f 56/3/1 50/3/1 53/3/1
f 57/3/1 50/3/1 56/3/1
f 59/4/1 55/4/1 54/4/1
f 60/4/1 55/4/1 59/4/1
f 66/3/1 58/3/1 57/3/1
f 67/3/1 58/3/1 66/3/1
f 68/1/1 62/1/1 61/1/1
f 69/3/1 63/3/1 62/3/1
f 69/1/1 62/1/1 68/1/1
f 70/3/1 63/3/1 69/3/1
f 71/3/1 65/3/1 64/3/1
f 71/3/1 66/3/1 65/3/1
f 72/3/1 66/3/1 71/3/1
f 75/2/1 74/2/1 73/2/1
f 76/2/1 74/2/1 75/2/1
f 79/3/1 78/3/1 77/3/1
f 80/3/1 78/3/1 79/3/1
f 83/1/1 82/1/1 81/1/1
f 84/1/1 82/1/1 83/1/1
f 87/1/1 86/1/1 85/1/1
f 88/1/1 86/1/1 87/1/1
f 89/3/1 88/3/1 87/3/1
f 90/3/1 88/3/1 89/3/1
f 93/3/1 92/3/1 91/3/1
f 94/3/1 92/3/1 93/3/1
f 96/3/1 95/3/1 94/3/1
f 97/3/1 95/3/1 96/3/1
f 100/6/1 99/6/1 98/6/1
f 101/6/1 99/6/1 100/6/1
f 102/3/1 101/3/1 100/3/1
f 103/3/1 101/3/1 102/3/1
f 106/1/1 105/1/1 104/1/1
f 107/1/1 105/1/1 106/1/1
f 111/1/1 109/1/1 108/1/1
f 112/1/1 109/1/1 111/1/1
f 113/3/1 111/3/1 110/3/1
f 114/3/1 111/3/1 113/3/1
f 115/6/2 116/6/2 117/6/2
f 117/6/2 116/6/2 118/6/2
f 117/3/2 118/3/2 119/3/2
f 119/3/2 118/3/2 120/3/2
f 121/1/2 122/1/2 123/1/2
f 123/1/2 122/1/2 124/1/2
f 125/3/2 126/3/2 129/3/2
f 129/3/2 126/3/2 130/3/2
f 127/1/2 128/1/2 131/1/2
f 131/1/2 128/1/2 132/1/2
f 133/3/2 134/3/2 135/3/2
f 135/3/2 134/3/2 136/3/2
f 137/1/2 138/1/2 140/1/2
f 140/1/2 138/1/2 141/1/2
f 139/1/2 140/1/2 142/1/2
f 142/1/2 140/1/2 143/1/2
f 144/2/2 145/2/2 146/2/2
f 146/2/2 145/2/2 147/2/2
f 148/1/2 149/1/2 150/1/2
f 150/1/2 149/1/2 151/1/2
f 152/3/2 153/3/2 154/3/2
f 154/3/2 153/3/2 155/3/2
f 155/3/2 156/3/2 157/3/2
f 157/3/2 156/3/2 158/3/2
f 159/6/2 160/6/2 161/6/2
f 161/6/2 160/6/2 162/6/2
f 161/3/2 162/3/2 164/3/2
f 164/3/2 162/3/2 165/3/2
f 163/3/2 164/3/2 167/3/2
f 167/3/2 164/3/2 168/3/2
f 165/3/2 166/3/2 169/3/2
f 169/3/2 166/3/2 170/3/2
f 167/5/2 168/5/2 171/5/2
f 171/5/2 168/5/2 172/5/2
f 169/5/2 170/5/2 173/5/2
f 173/5/2 170/5/2 174/5/2
f 172/2/2 173/2/2 176/2/2
f 173/1/2 174/1/2 177/1/2
f 176/2/2 173/2/2 177/2/2
f 177/1/2 174/1/2 178/1/2
f 176/2/2 177/2/2 180/2/2
f 175/2/2 176/2/2 180/2/2
f 180/2/2 177/2/2 181/2/2
f 178/1/2 179/1/2 182/1/2
f 182/1/2 179/1/2 183/1/2
f 175/2/2 180/2/2 184/2/2
f 184/2/2 180/2/2 185/2/2
f 184/4/2 185/4/2 189/4/2
f 189/4/2 185/4/2 190/4/2
f 186/1/2 187/1/2 191/1/2
f 191/1/2 187/1/2 192/1/2
f 188/1/2 189/1/2 193/1/2
f 193/1/2 189/1/2 194/1/2
f 194/3/2 195/3/2 198/3/2
f 198/3/2 195/3/2 199/3/2
f 196/1/2 197/1/2 201/1/2
f 201/1/2 197/1/2 202/1/2
f 200/3/2 201/3/2 203/3/2
f 203/3/2 201/3/2 204/3/2
f 205/2/2 206/2/2 207/2/2
f 207/2/2 206/2/2 208/2/2
f 207/5/2 208/5/2 209/5/2
f 209/5/2 208/5/2 210/5/2
f 211/1/2 212/1/2 214/1/2
f 214/1/2 212/1/2 215/1/2
f 213/2/2 214/2/2 217/2/2
f 214/1/2 215/1/2 218/1/2
f 217/2/2 214/2/2 218/2/2
f 217/3/2 218/3/2 220/3/2
f 218/1/2 215/1/2 221/1/2
f 220/3/2 218/3/2 221/3/2
f 215/3/2 216/3/2 222/3/2
f 221/1/2 215/1/2 222/1/2
f 219/1/2 220/1/2 223/1/2
f 220/3/2 221/3/2 224/3/2
f 223/1/2 220/1/2 224/1/2
f 224/3/2 221/3/2 225/3/2
f 222/3/2 216/3/2 226/3/2
f 226/3/2 216/3/2 227/3/2
f 224/3/2 225/3/2 228/3/2
f 225/1/2 226/1/2 229/1/2
f 228/3/2 225/3/2 229/3/2
f 229/1/2 226/1/2 230/1/2
f 231/1/2 232/1/2 233/1/2
f 233/1/2 232/1/2 234/1/2
f 238/1/3 236/1/3 235/1/3
f 239/1/3 236/1/3 238/1/3
f 240/3/3 238/3/3 237/3/3
f 241/3/3 238/3/3 240/3/3
f 244/3/3 242/3/3 241/3/3
f 245/3/3 242/3/3 244/3/3
f 246/1/3 244/1/3 243/1/3
f 247/1/3 244/1/3 246/1/3
f 255/1/3 249/1/3 248/1/3
f 256/1/3 249/1/3 255/1/3
f 257/5/3 252/5/3 251/5/3
f 258/2/3 254/2/3 253/2/3
f 259/4/3 255/4/3 254/4/3
f 259/2/3 254/2/3 258/2/3
f 260/2/3 256/2/3 255/2/3
f 260/4/3 255/4/3 259/4/3
f 261/2/3 256/2/3 260/2/3
f 263/2/3 258/2/3 257/2/3
f 263/2/3 260/2/3 259/2/3
f 263/2/3 259/2/3 258/2/3
f 264/1/3 262/1/3 261/1/3
f 265/1/3 262/1/3 264/1/3
f 267/5/3 257/5/3 251/5/3
f 267/2/3 263/2/3 257/2/3
f 267/2/3 264/2/3 263/2/3
f 268/2/3 264/2/3 267/2/3
f 269/2/3 264/2/3 268/2/3
f 270/2/3 264/2/3 269/2/3
f 271/2/3 264/2/3 270/2/3
f 272/3/3 266/3/3 265/3/3
f 273/3/3 266/3/3 272/3/3
f 274/3/3 251/3/3 250/3/3
f 275/5/3 267/5/3 251/5/3
f 275/3/3 251/3/3 274/3/3
f 276/5/3 267/5/3 275/5/3
f 277/2/3 269/2/3 268/2/3
f 278/4/3 270/4/3 269/4/3
f 278/2/3 269/2/3 277/2/3
f 279/4/3 270/4/3 278/4/3
f 280/3/3 272/3/3 271/3/3
f 281/3/3 272/3/3 280/3/3
f 282/1/3 280/1/3 279/1/3
f 283/1/3 280/1/3 282/1/3
f 294/2/3 285/2/3 284/2/3
f 295/5/3 286/5/3 285/5/3
f 295/2/3 285/2/3 294/2/3
f 296/5/3 286/5/3 295/5/3
f 298/2/3 288/2/3 287/2/3
f 299/1/3 289/1/3 288/1/3
f 299/2/3 288/2/3 298/2/3
f 300/1/3 289/1/3 299/1/3
f 301/1/3 291/1/3 290/1/3
f 302/1/3 291/1/3 301/1/3
f 303/6/3 293/6/3 292/6/3
f 304/3/3 294/3/3 293/3/3
f 304/6/3 293/6/3 303/6/3
f 305/3/3 294/3/3 304/3/3
f 306/2/3 297/2/3 296/2/3
f 307/2/3 297/2/3 306/2/3
f 313/6/3 309/6/3 308/6/3
f 314/3/3 310/3/3 309/3/3
f 314/6/3 309/6/3 313/6/3
f 315/3/3 310/3/3 314/3/3
f 317/2/3 312/2/3 311/2/3
f 318/2/3 312/2/3 317/2/3
f 324/2/3 316/2/3 315/2/3
f 325/5/3 317/5/3 316/5/3
f 325/2/3 316/2/3 324/2/3
f 326/5/3 317/5/3 325/5/3
f 327/2/3 320/2/3 319/2/3
f 328/3/3 321/3/3 320/3/3
f 328/2/3 320/2/3 327/2/3
f 329/3/3 321/3/3 328/3/3
f 330/3/3 323/3/3 322/3/3
f 331/3/3 323/3/3 330/3/3
f 336/3/3 333/3/3 332/3/3
f 337/3/3 333/3/3 336/3/3
f 338/1/3 335/1/3 334/1/3
f 339/1/3 335/1/3 338/1/3
f 342/1/3 341/1/3 340/1/3
f 343/1/3 341/1/3 342/1/3
f 348/3/3 345/3/3 344/3/3
f 349/3/3 345/3/3 348/3/3
f 350/1/3 347/1/3 346/1/3
f 351/1/3 347/1/3 350/1/3
f 354/1/3 353/1/3 352/1/3
f 355/1/3 353/1/3 354/1/3
f 356/3/4 357/3/4 358/3/4
f 358/3/4 357/3/4 359/3/4
f 360/2/4 361/2/4 367/2/4
f 361/5/4 362/5/4 368/5/4
f 367/2/4 361/2/4 368/2/4
f 368/5/4 362/5/4 369/5/4
f 363/1/4 364/1/4 370/1/4
f 370/1/4 364/1/4 371/1/4
f 365/6/4 366/6/4 372/6/4
f 366/3/4 367/3/4 373/3/4
f 372/6/4 366/6/4 373/6/4
f 373/3/4 367/3/4 374/3/4
f 375/6/4 376/6/4 378/6/4
f 376/3/4 377/3/4 379/3/4
f 378/6/4 376/6/4 379/6/4
f 379/3/4 377/3/4 380/3/4
f 380/2/4 381/2/4 383/2/4
f 381/5/4 382/5/4 384/5/4
f 383/2/4 381/2/4 384/2/4
f 384/5/4 382/5/4 385/5/4
f 386/3/4 387/3/4 391/3/4
f 391/3/4 387/3/4 392/3/4
f 388/1/4 389/1/4 395/1/4
f 395/1/4 389/1/4 396/1/4
f 389/3/4 390/3/4 397/3/4
f 396/1/4 389/1/4 397/1/4
f 397/3/4 390/3/4 398/3/4
f 394/5/4 395/5/4 399/5/4
f 401/1/4 402/1/4 404/1/4
f 404/1/4 402/1/4 405/1/4
f 399/2/4 400/2/4 406/2/4
f 394/5/4 399/5/4 406/5/4
f 406/2/4 400/2/4 407/2/4
f 403/1/4 404/1/4 408/1/4
f 408/1/4 404/1/4 409/1/4
f 393/3/4 394/3/4 411/3/4
f 394/5/4 406/5/4 412/5/4
f 411/3/4 394/3/4 412/3/4
f 406/1/4 407/1/4 413/1/4
f 412/5/4 406/5/4 413/5/4
f 413/1/4 407/1/4 414/1/4
f 409/3/4 410/3/4 417/3/4
f 417/3/4 410/3/4 418/3/4
f 414/1/4 415/1/4 419/1/4
f 419/1/4 415/1/4 420/1/4
f 416/1/4 417/1/4 422/1/4
f 422/1/4 417/1/4 423/1/4
f 421/1/4 422/1/4 424/1/4
f 424/1/4 422/1/4 425/1/4
f 426/1/4 427/1/4 430/1/4
f 430/1/4 427/1/4 431/1/4
f 428/1/4 429/1/4 433/1/4
f 429/3/4 430/3/4 434/3/4
f 433/1/4 429/1/4 434/1/4
f 434/3/4 430/3/4 435/3/4
f 435/3/4 430/3/4 436/3/4
f 431/3/4 432/3/4 437/3/4
f 437/3/4 432/3/4 438/3/4
f 435/3/4 436/3/4 439/3/4
f 434/1/4 435/1/4 439/1/4
f 437/1/4 438/1/4 440/1/4
f 439/3/4 436/3/4 440/3/4
f 436/1/4 437/1/4 440/1/4
f 440/1/4 438/1/4 441/1/4
f 441/1/4 438/1/4 442/1/4
f 442/1/4 438/1/4 443/1/4
f 434/1/4 439/1/4 444/1/4
f 441/3/4 442/3/4 446/3/4
f 446/3/4 442/3/4 447/3/4
f 444/1/4 445/1/4 449/1/4
f 434/1/4 444/1/4 449/1/4
f 449/1/4 445/1/4 450/1/4
f 450/1/4 445/1/4 451/1/4
f 447/1/4 448/1/4 452/1/4
f 446/1/4 447/1/4 452/1/4
f 452/1/4 448/1/4 453/1/4
f 453/1/4 448/1/4 454/1/4
f 450/3/4 451/3/4 455/3/4
f 452/3/4 453/3/4 455/3/4
f 451/3/4 452/3/4 455/3/4
f 455/3/4 453/3/4 456/3/4
f 457/3/4 458/3/4 459/3/4
f 459/3/4 458/3/4 460/3/4
f 461/1/4 462/1/4 464/1/4
f 462/3/4 463/3/4 465/3/4
f 464/1/4 462/1/4 465/1/4
f 465/3/4 463/3/4 466/3/4
f 465/1/4 466/1/4 467/1/4
f 467/1/4 466/1/4 468/1/4
f 473/6/5 470/6/5 469/6/5
f 474/6/5 470/6/5 473/6/5
f 475/6/5 472/6/5 471/6/5
f 476/6/5 472/6/5 475/6/5
f 480/3/5 478/3/5 477/3/5
f 481/3/5 478/3/5 480/3/5
f 482/3/5 478/3/5 481/3/5
f 483/3/5 478/3/5 482/3/5
f 485/2/5 480/2/5 479/2/5
f 486/2/5 480/2/5 485/2/5
f 487/3/5 482/3/5 481/3/5
f 488/3/5 482/3/5 487/3/5
f 489/2/5 484/2/5 483/2/5
f 490/2/5 484/2/5 489/2/5
f 491/3/5 488/3/5 487/3/5
f 491/3/5 489/3/5 488/3/5
f 491/3/5 487/3/5 486/3/5
f 492/3/5 489/3/5 491/3/5
f 495/1/5 494/1/5 493/1/5
f 496/1/5 494/1/5 495/1/5
f 498/1/5 497/1/5 496/1/5
f 499/1/5 497/1/5 498/1/5
f 504/2/5 501/2/5 500/2/5
f 505/2/5 501/2/5 504/2/5
f 506/2/5 503/2/5 502/2/5
f 507/2/5 503/2/5 506/2/5
f 512/1/5 509/1/5 508/1/5
f 513/1/5 509/1/5 512/1/5
f 514/1/5 511/1/5 510/1/5
f 514/1/5 512/1/5 511/1/5
f 515/1/5 512/1/5 514/1/5
f 520/2/5 517/2/5 516/2/5
f 521/2/5 517/2/5 520/2/5
f 522/2/5 519/2/5 518/2/5
f 523/2/5 519/2/5 522/2/5
f 528/3/5 525/3/5 524/3/5
f 529/3/5 525/3/5 528/3/5
f 530/1/5 527/1/5 526/1/5
f 531/1/5 527/1/5 530/1/5
f 534/1/5 533/1/5 532/1/5
f 535/1/5 533/1/5 534/1/5
f 539/3/5 536/3/5 535/3/5
f 540/3/5 536/3/5 539/3/5
f 541/1/5 538/1/5 537/1/5
f 542/1/5 538/1/5 541/1/5
f 549/3/5 544/3/5 543/3/5
f 550/3/5 544/3/5 549/3/5
f 551/1/5 546/1/5 545/1/5
f 552/1/5 546/1/5 551/1/5
f 554/1/5 548/1/5 547/1/5
f 555/1/5 548/1/5 554/1/5
f 556/1/5 553/1/5 552/1/5
f 557/1/5 553/1/5 556/1/5
f 562/3/5 559/3/5 558/3/5
f 563/3/5 559/3/5 562/3/5
f 564/1/5 561/1/5 560/1/5
f 565/1/5 561/1/5 564/1/5
f 570/1/5 567/1/5 566/1/5
f 571/1/5 567/1/5 570/1/5
f 572/3/5 569/3/5 568/3/5
f 573/3/5 569/3/5 572/3/5
f 574/5/6 575/5/6 579/5/6
f 579/5/6 575/5/6 580/5/6
f 576/5/6 577/5/6 581/5/6
f 581/5/6 577/5/6 582/5/6
f 578/5/6 579/5/6 584/5/6
f 584/5/6 579/5/6 585/5/6
f 582/5/6 583/5/6 586/5/6
f 586/5/6 583/5/6 587/5/6
f 588/3/6 589/3/6 591/3/6
f 589/1/6 590/1/6 592/1/6
f 591/3/6 589/3/6 592/3/6
f 592/1/6 590/1/6 593/1/6
f 594/3/6 595/3/6 600/3/6
f 600/3/6 595/3/6 601/3/6
f 596/1/6 597/1/6 602/1/6
f 602/1/6 597/1/6 603/1/6
f 598/1/6 599/1/6 605/1/6
f 605/1/6 599/1/6 606/1/6
f 603/1/6 604/1/6 607/1/6
f 607/1/6 604/1/6 608/1/6
f 610/3/6 611/3/6 614/3/6
f 609/3/6 610/3/6 614/3/6
f 614/3/6 611/3/6 615/3/6
f 615/3/6 611/3/6 616/3/6
f 612/1/6 613/1/6 620/1/6
f 620/1/6 613/1/6 621/1/6
f 615/1/6 616/1/6 622/1/6
f 622/1/6 616/1/6 623/1/6
f 617/3/6 618/3/6 625/3/6
f 625/3/6 618/3/6 626/3/6
f 619/3/6 620/3/6 627/3/6
f 627/3/6 620/3/6 628/3/6
f 623/3/6 624/3/6 629/3/6
f 629/3/6 624/3/6 630/3/6
f 631/1/6 632/1/6 635/1/6
f 635/1/6 632/1/6 636/1/6
f 633/3/6 634/3/6 637/3/6
f 637/3/6 634/3/6 638/3/6
f 635/3/6 636/3/6 641/3/6
f 636/1/6 637/1/6 642/1/6
f 638/3/6 639/3/6 643/3/6
f 643/3/6 639/3/6 644/3/6
f 640/1/6 641/1/6 646/1/6
f 641/3/6 636/3/6 647/3/6
f 646/1/6 641/1/6 647/1/6
f 636/1/6 642/1/6 648/1/6
f 647/3/6 636/3/6 648/3/6
f 642/3/6 643/3/6 649/3/6
f 648/1/6 642/1/6 649/1/6
f 643/1/6 644/1/6 650/1/6
f 649/3/6 643/3/6 650/3/6
f 644/3/6 645/3/6 651/3/6
f 650/1/6 644/1/6 651/1/6
f 651/3/6 645/3/6 652/3/6
f 647/3/6 648/3/6 653/3/6
f 649/1/6 650/1/6 654/1/6
f 654/1/6 650/1/6 655/1/6
f 651/1/6 652/1/6 656/1/6
f 656/1/6 652/1/6 657/1/6
f 647/3/6 653/3/6 658/3/6
f 653/1/6 654/1/6 659/1/6
f 658/3/6 653/3/6 659/3/6
f 659/1/6 654/1/6 660/1/6
f 655/1/6 656/1/6 661/1/6
f 661/1/6 656/1/6 662/1/6
f 663/3/6 664/3/6 665/3/6
f 665/3/6 664/3/6 666/3/6
f 667/1/6 668/1/6 671/1/6
f 671/1/6 668/1/6 672/1/6
f 669/3/6 670/3/6 673/3/6
f 673/3/6 670/3/6 674/3/6
