# MagicaVoxel @ Ephtracy

# group
o 

# material
mtllib spec3.mtl
usemtl palette

# normals
vn -1 0 0
vn 1 0 0
vn 0 0 1
vn 0 0 -1
vn 0 -1 0
vn 0 1 0

# texcoords
vt 0.0136719 0.5
vt 0.0332031 0.5
vt 0.0371094 0.5
vt 0.0410156 0.5
vt 0.419922 0.5
vt 0.611328 0.5
vt 0.958984 0.5
vt 0.994141 0.5

# verts
v 0.7 1.3 -1
v 0.7 1.3 -1.1
v 0.7 1.6 -1
v 0.7 1.6 -1.1
v 0.7 1.7 -1
v 0.7 1.7 -1.1
v 0.7 1.9 -1
v 0.7 1.9 -1.1
v 0.7 2 -1
v 0.7 2 -1.1
v 0.7 2 -1.3
v 0.7 2.1 -0.9
v 0.7 2.1 -1.1
v 0.7 2.2 -0.9
v 0.7 2.2 -1.3
v 0.7 2.3 -0.9
v 0.7 2.3 -1.3
v 0.8 1 -1
v 0.8 1 -1.1
v 0.8 1.1 -1
v 0.8 1.1 -1.1
v 0.8 1.3 -0.9
v 0.8 1.3 -1
v 0.8 1.3 -1.1
v 0.8 1.3 -1.2
v 0.8 1.4 -0.9
v 0.8 1.4 -1
v 0.8 1.4 -1.1
v 0.8 1.4 -1.2
v 0.8 1.6 -1
v 0.8 1.6 -1.1
v 0.8 1.7 -0.9
v 0.8 1.7 -1
v 0.8 1.7 -1.1
v 0.8 1.7 -1.2
v 0.8 1.8 -0.9
v 0.8 1.8 -1
v 0.8 1.8 -1.1
v 0.8 1.8 -1.2
v 0.8 1.9 -1
v 0.8 1.9 -1.1
v 0.8 2 -0.9
v 0.8 2 -1
v 0.8 2 -1.1
v 0.8 2 -1.2
v 0.8 2.1 -0.9
v 0.8 2.1 -1
v 0.8 2.1 -1.1
v 0.8 2.2 -0.8
v 0.8 2.2 -0.9
v 0.8 2.2 -1.3
v 0.8 2.2 -1.4
v 0.8 2.3 -0.8
v 0.8 2.3 -0.9
v 0.8 2.3 -1.3
v 0.8 2.3 -1.4
v 0.8 2.4 -0.9
v 0.8 2.4 -1.3
v 0.9 1.7 -0.9
v 0.9 1.7 -1
v 0.9 1.7 -1.1
v 0.9 1.7 -1.2
v 0.9 1.8 -0.9
v 0.9 1.8 -1
v 0.9 1.8 -1.1
v 0.9 1.8 -1.2
v 0.9 2.1 -0.8
v 0.9 2.1 -0.9
v 0.9 2.2 -0.8
v 0.9 2.2 -0.9
v 0.9 2.4 -1
v 0.9 2.4 -1.2
v 0.9 2.5 -1
v 0.9 2.5 -1.2
v 1.1 1 -1
v 1.1 1 -1.1
v 1.1 1.1 -1
v 1.1 1.1 -1.1
v 1.1 1.3 -1
v 1.1 1.3 -1.1
v 1.1 2.1 -0.8
v 1.1 2.1 -0.9
v 1.1 2.2 -0.8
v 1.1 2.2 -0.9
v 0.9 1 -1
v 0.9 1 -1.1
v 0.9 1.1 -1
v 0.9 1.1 -1.1
v 0.9 1.3 -1
v 0.9 1.3 -1.1
v 1 2.1 -0.8
v 1 2.1 -0.9
v 1 2.2 -0.8
v 1 2.2 -0.9
v 1.1 1.7 -0.9
v 1.1 1.7 -1
v 1.1 1.7 -1.1
v 1.1 1.7 -1.2
v 1.1 1.8 -0.9
v 1.1 1.8 -1
v 1.1 1.8 -1.1
v 1.1 1.8 -1.2
v 1.1 2.4 -1
v 1.1 2.4 -1.2
v 1.1 2.5 -1
v 1.1 2.5 -1.2
v 1.2 1 -1
v 1.2 1 -1.1
v 1.2 1.1 -1
v 1.2 1.1 -1.1
v 1.2 1.3 -0.9
v 1.2 1.3 -1
v 1.2 1.3 -1.1
v 1.2 1.3 -1.2
v 1.2 1.4 -0.9
v 1.2 1.4 -1
v 1.2 1.4 -1.1
v 1.2 1.4 -1.2
v 1.2 1.6 -1
v 1.2 1.6 -1.1
v 1.2 1.7 -0.9
v 1.2 1.7 -1
v 1.2 1.7 -1.1
v 1.2 1.7 -1.2
v 1.2 1.8 -0.9
v 1.2 1.8 -1
v 1.2 1.8 -1.1
v 1.2 1.8 -1.2
v 1.2 1.9 -1
v 1.2 1.9 -1.1
v 1.2 2 -0.9
v 1.2 2 -1
v 1.2 2 -1.1
v 1.2 2 -1.2
v 1.2 2.1 -0.8
v 1.2 2.1 -0.9
v 1.2 2.1 -1
v 1.2 2.1 -1.2
v 1.2 2.2 -0.8
v 1.2 2.2 -0.9
v 1.2 2.2 -1.3
v 1.2 2.2 -1.4
v 1.2 2.3 -0.8
v 1.2 2.3 -0.9
v 1.2 2.3 -1.3
v 1.2 2.3 -1.4
v 1.2 2.4 -0.9
v 1.2 2.4 -1.3
v 1.3 1.3 -1
v 1.3 1.3 -1.1
v 1.3 1.6 -1
v 1.3 1.6 -1.1
v 1.3 1.7 -1
v 1.3 1.7 -1.1
v 1.3 1.9 -1
v 1.3 1.9 -1.1
v 1.3 2 -1
v 1.3 2 -1.1
v 1.3 2 -1.2
v 1.3 2 -1.3
v 1.3 2.1 -0.9
v 1.3 2.1 -1.2
v 1.3 2.2 -0.9
v 1.3 2.2 -1.3
v 1.3 2.3 -0.9
v 1.3 2.3 -1.3
v 0.8 2.2 -0.8
v 0.8 2.3 -0.8
v 0.9 2.1 -0.8
v 0.9 2.2 -0.8
v 1 2.1 -0.8
v 1 2.2 -0.8
v 1.1 2.1 -0.8
v 1.1 2.2 -0.8
v 1.2 2.1 -0.8
v 1.2 2.2 -0.8
v 1.2 2.3 -0.8
v 0.7 2.1 -0.9
v 0.7 2.2 -0.9
v 0.7 2.3 -0.9
v 0.8 1.3 -0.9
v 0.8 1.4 -0.9
v 0.8 1.7 -0.9
v 0.8 1.8 -0.9
v 0.8 2 -0.9
v 0.8 2.1 -0.9
v 0.8 2.2 -0.9
v 0.8 2.3 -0.9
v 0.8 2.4 -0.9
v 0.9 1.7 -0.9
v 0.9 1.8 -0.9
v 0.9 2 -0.9
v 0.9 2.1 -0.9
v 0.9 2.2 -0.9
v 1 2.1 -0.9
v 1 2.2 -0.9
v 1.1 1.7 -0.9
v 1.1 1.8 -0.9
v 1.1 2 -0.9
v 1.1 2.1 -0.9
v 1.1 2.2 -0.9
v 1.2 1.3 -0.9
v 1.2 1.4 -0.9
v 1.2 1.7 -0.9
v 1.2 1.8 -0.9
v 1.2 2 -0.9
v 1.2 2.1 -0.9
v 1.2 2.2 -0.9
v 1.2 2.3 -0.9
v 1.2 2.4 -0.9
v 1.3 2.1 -0.9
v 1.3 2.2 -0.9
v 1.3 2.3 -0.9
v 0.7 1.3 -1
v 0.7 1.6 -1
v 0.7 1.7 -1
v 0.7 1.9 -1
v 0.7 2 -1
v 0.8 1 -1
v 0.8 1.1 -1
v 0.8 1.3 -1
v 0.8 1.4 -1
v 0.8 1.6 -1
v 0.8 1.7 -1
v 0.8 1.8 -1
v 0.8 1.9 -1
v 0.8 2 -1
v 0.9 1 -1
v 0.9 1.1 -1
v 0.9 1.3 -1
v 0.9 1.7 -1
v 0.9 1.8 -1
v 0.9 2.4 -1
v 0.9 2.5 -1
v 1.1 1 -1
v 1.1 1.1 -1
v 1.1 1.3 -1
v 1.1 1.7 -1
v 1.1 1.8 -1
v 1.1 2.4 -1
v 1.1 2.5 -1
v 1.2 1 -1
v 1.2 1.1 -1
v 1.2 1.3 -1
v 1.2 1.4 -1
v 1.2 1.6 -1
v 1.2 1.7 -1
v 1.2 1.8 -1
v 1.2 1.9 -1
v 1.2 2 -1
v 1.3 1.3 -1
v 1.3 1.6 -1
v 1.3 1.7 -1
v 1.3 1.9 -1
v 1.3 2 -1
v 0.7 2 -1.1
v 0.7 2.1 -1.1
v 0.8 2 -1.1
v 0.8 2.1 -1.1
v 1.2 2 -1.2
v 1.2 2.1 -1.2
v 1.3 2 -1.2
v 1.3 2.1 -1.2
v 0.7 1.3 -1.1
v 0.7 1.6 -1.1
v 0.7 1.7 -1.1
v 0.7 1.9 -1.1
v 0.7 2 -1.1
v 0.8 1 -1.1
v 0.8 1.1 -1.1
v 0.8 1.3 -1.1
v 0.8 1.4 -1.1
v 0.8 1.6 -1.1
v 0.8 1.7 -1.1
v 0.8 1.8 -1.1
v 0.8 1.9 -1.1
v 0.8 2 -1.1
v 0.9 1 -1.1
v 0.9 1.1 -1.1
v 0.9 1.3 -1.1
v 0.9 1.7 -1.1
v 0.9 1.8 -1.1
v 1.1 1 -1.1
v 1.1 1.1 -1.1
v 1.1 1.3 -1.1
v 1.1 1.7 -1.1
v 1.1 1.8 -1.1
v 1.2 1 -1.1
v 1.2 1.1 -1.1
v 1.2 1.3 -1.1
v 1.2 1.4 -1.1
v 1.2 1.6 -1.1
v 1.2 1.7 -1.1
v 1.2 1.8 -1.1
v 1.2 1.9 -1.1
v 1.2 2 -1.1
v 1.3 1.3 -1.1
v 1.3 1.6 -1.1
v 1.3 1.7 -1.1
v 1.3 1.9 -1.1
v 1.3 2 -1.1
v 0.8 1.3 -1.2
v 0.8 1.4 -1.2
v 0.8 1.7 -1.2
v 0.8 1.8 -1.2
v 0.8 2 -1.2
v 0.9 1.7 -1.2
v 0.9 1.8 -1.2
v 0.9 2.4 -1.2
v 0.9 2.5 -1.2
v 1.1 1.7 -1.2
v 1.1 1.8 -1.2
v 1.1 2.4 -1.2
v 1.1 2.5 -1.2
v 1.2 1.3 -1.2
v 1.2 1.4 -1.2
v 1.2 1.7 -1.2
v 1.2 1.8 -1.2
v 1.2 2 -1.2
v 0.7 2 -1.3
v 0.7 2.2 -1.3
v 0.7 2.3 -1.3
v 0.8 2.2 -1.3
v 0.8 2.3 -1.3
v 0.8 2.4 -1.3
v 1.2 2.2 -1.3
v 1.2 2.3 -1.3
v 1.2 2.4 -1.3
v 1.3 2 -1.3
v 1.3 2.2 -1.3
v 1.3 2.3 -1.3
v 0.8 2.2 -1.4
v 0.8 2.3 -1.4
v 1.2 2.2 -1.4
v 1.2 2.3 -1.4
v 0.8 1 -1
v 0.9 1 -1
v 1.1 1 -1
v 1.2 1 -1
v 0.8 1 -1.1
v 0.9 1 -1.1
v 1.1 1 -1.1
v 1.2 1 -1.1
v 0.8 1.3 -0.9
v 1.2 1.3 -0.9
v 0.7 1.3 -1
v 0.8 1.3 -1
v 0.9 1.3 -1
v 1.1 1.3 -1
v 1.2 1.3 -1
v 1.3 1.3 -1
v 0.7 1.3 -1.1
v 0.8 1.3 -1.1
v 0.9 1.3 -1.1
v 1.1 1.3 -1.1
v 1.2 1.3 -1.1
v 1.3 1.3 -1.1
v 0.8 1.3 -1.2
v 1.2 1.3 -1.2
v 0.8 1.8 -0.9
v 0.9 1.8 -0.9
v 1.1 1.8 -0.9
v 1.2 1.8 -0.9
v 0.8 1.8 -1
v 0.9 1.8 -1
v 1.1 1.8 -1
v 1.2 1.8 -1
v 0.8 1.8 -1.1
v 0.9 1.8 -1.1
v 1.1 1.8 -1.1
v 1.2 1.8 -1.1
v 0.8 1.8 -1.2
v 0.9 1.8 -1.2
v 1.1 1.8 -1.2
v 1.2 1.8 -1.2
v 0.7 1.9 -1
v 0.8 1.9 -1
v 1.2 1.9 -1
v 1.3 1.9 -1
v 0.7 1.9 -1.1
v 0.8 1.9 -1.1
v 1.2 1.9 -1.1
v 1.3 1.9 -1.1
v 0.7 2 -1.1
v 0.8 2 -1.1
v 0.8 2 -1.2
v 1.2 2 -1.2
v 1.3 2 -1.2
v 0.7 2 -1.3
v 1.3 2 -1.3
v 0.9 2.1 -0.8
v 1 2.1 -0.8
v 1.1 2.1 -0.8
v 1.2 2.1 -0.8
v 0.7 2.1 -0.9
v 0.8 2.1 -0.9
v 0.9 2.1 -0.9
v 1 2.1 -0.9
v 1.1 2.1 -0.9
v 1.2 2.1 -0.9
v 1.3 2.1 -0.9
v 0.8 2.1 -1
v 1.2 2.1 -1
v 0.7 2.1 -1.1
v 0.8 2.1 -1.1
v 1.2 2.1 -1.2
v 1.3 2.1 -1.2
v 0.8 2.2 -0.8
v 0.9 2.2 -0.8
v 1 2.2 -0.8
v 1.1 2.2 -0.8
v 0.8 2.2 -0.9
v 0.9 2.2 -0.9
v 1 2.2 -0.9
v 1.1 2.2 -0.9
v 0.8 2.2 -1.3
v 1.2 2.2 -1.3
v 0.8 2.2 -1.4
v 1.2 2.2 -1.4
v 0.8 1.7 -0.9
v 0.9 1.7 -0.9
v 1.1 1.7 -0.9
v 1.2 1.7 -0.9
v 0.7 1.7 -1
v 0.8 1.7 -1
v 0.9 1.7 -1
v 1.1 1.7 -1
v 1.2 1.7 -1
v 1.3 1.7 -1
v 0.7 1.7 -1.1
v 0.8 1.7 -1.1
v 0.9 1.7 -1.1
v 1.1 1.7 -1.1
v 1.2 1.7 -1.1
v 1.3 1.7 -1.1
v 0.8 1.7 -1.2
v 0.9 1.7 -1.2
v 1.1 1.7 -1.2
v 1.2 1.7 -1.2
v 0.7 2 -1
v 0.8 2 -1
v 1.2 2 -1
v 1.3 2 -1
v 0.7 2 -1.1
v 0.8 2 -1.1
v 1.2 2 -1.1
v 1.3 2 -1.1
v 0.8 2.3 -0.8
v 1.2 2.3 -0.8
v 0.7 2.3 -0.9
v 0.8 2.3 -0.9
v 1.2 2.3 -0.9
v 1.3 2.3 -0.9
v 0.7 2.3 -1.3
v 0.8 2.3 -1.3
v 1.2 2.3 -1.3
v 1.3 2.3 -1.3
v 0.8 2.3 -1.4
v 1.2 2.3 -1.4
v 0.8 2.4 -0.9
v 1.2 2.4 -0.9
v 0.9 2.4 -1
v 1.1 2.4 -1
v 0.9 2.4 -1.2
v 1.1 2.4 -1.2
v 0.8 2.4 -1.3
v 1.2 2.4 -1.3
v 0.9 2.5 -1
v 1.1 2.5 -1
v 0.9 2.5 -1.2
v 1.1 2.5 -1.2

# faces
f 3/3/1 2/3/1 1/3/1
f 4/3/1 2/3/1 3/3/1
f 5/5/1 4/5/1 3/5/1
f 6/5/1 4/5/1 5/5/1
f 9/3/1 8/3/1 7/3/1
f 10/3/1 8/3/1 9/3/1
f 13/8/1 11/8/1 10/8/1
f 14/8/1 13/8/1 12/8/1
f 15/8/1 11/8/1 13/8/1
f 15/8/1 13/8/1 14/8/1
f 16/5/1 15/5/1 14/5/1
f 17/5/1 15/5/1 16/5/1
f 20/8/1 19/8/1 18/8/1
f 21/8/1 19/8/1 20/8/1
f 23/7/1 21/7/1 20/7/1
f 24/7/1 21/7/1 23/7/1
f 26/7/1 23/7/1 22/7/1
f 27/7/1 23/7/1 26/7/1
f 28/7/1 25/7/1 24/7/1
f 29/7/1 25/7/1 28/7/1
f 30/5/1 27/5/1 26/5/1
f 31/5/1 29/5/1 28/5/1
f 32/5/1 30/5/1 26/5/1
f 33/5/1 30/5/1 32/5/1
f 34/5/1 29/5/1 31/5/1
f 35/5/1 29/5/1 34/5/1
f 37/3/1 34/3/1 33/3/1
f 38/3/1 34/3/1 37/3/1
f 40/3/1 37/3/1 36/3/1
f 40/3/1 39/3/1 38/3/1
f 40/3/1 38/3/1 37/3/1
f 41/3/1 39/3/1 40/3/1
f 42/3/1 40/3/1 36/3/1
f 43/3/1 40/3/1 42/3/1
f 44/3/1 39/3/1 41/3/1
f 45/3/1 39/3/1 44/3/1
f 46/6/1 43/6/1 42/6/1
f 47/3/1 44/3/1 43/3/1
f 47/6/1 43/6/1 46/6/1
f 48/3/1 44/3/1 47/3/1
f 53/5/1 50/5/1 49/5/1
f 54/5/1 50/5/1 53/5/1
f 55/5/1 52/5/1 51/5/1
f 56/5/1 52/5/1 55/5/1
f 57/5/1 55/5/1 54/5/1
f 58/5/1 55/5/1 57/5/1
f 63/3/1 60/3/1 59/3/1
f 64/3/1 60/3/1 63/3/1
f 65/3/1 62/3/1 61/3/1
f 66/3/1 62/3/1 65/3/1
f 69/8/1 68/8/1 67/8/1
f 70/8/1 68/8/1 69/8/1
f 73/5/1 72/5/1 71/5/1
f 74/5/1 72/5/1 73/5/1
f 77/8/1 76/8/1 75/8/1
f 78/8/1 76/8/1 77/8/1
f 79/7/1 78/7/1 77/7/1
f 80/7/1 78/7/1 79/7/1
f 83/8/1 82/8/1 81/8/1
f 84/8/1 82/8/1 83/8/1
f 85/8/2 86/8/2 87/8/2
f 87/8/2 86/8/2 88/8/2
f 87/7/2 88/7/2 89/7/2
f 89/7/2 88/7/2 90/7/2
f 91/8/2 92/8/2 93/8/2
f 93/8/2 92/8/2 94/8/2
f 95/3/2 96/3/2 99/3/2
f 99/3/2 96/3/2 100/3/2
f 97/3/2 98/3/2 101/3/2
f 101/3/2 98/3/2 102/3/2
f 103/5/2 104/5/2 105/5/2
f 105/5/2 104/5/2 106/5/2
f 107/8/2 108/8/2 109/8/2
f 109/8/2 108/8/2 110/8/2
f 109/7/2 110/7/2 112/7/2
f 112/7/2 110/7/2 113/7/2
f 111/7/2 112/7/2 115/7/2
f 115/7/2 112/7/2 116/7/2
f 113/7/2 114/7/2 117/7/2
f 117/7/2 114/7/2 118/7/2
f 115/5/2 116/5/2 119/5/2
f 117/5/2 118/5/2 120/5/2
f 115/5/2 119/5/2 121/5/2
f 121/5/2 119/5/2 122/5/2
f 120/5/2 118/5/2 123/5/2
f 123/5/2 118/5/2 124/5/2
f 122/3/2 123/3/2 126/3/2
f 126/3/2 123/3/2 127/3/2
f 125/3/2 126/3/2 129/3/2
f 127/3/2 128/3/2 129/3/2
f 126/3/2 127/3/2 129/3/2
f 129/3/2 128/3/2 130/3/2
f 125/3/2 129/3/2 131/3/2
f 131/3/2 129/3/2 132/3/2
f 130/3/2 128/3/2 133/3/2
f 133/3/2 128/3/2 134/3/2
f 131/6/2 132/6/2 136/6/2
f 132/3/2 133/3/2 137/3/2
f 133/3/2 134/3/2 137/3/2
f 136/6/2 132/6/2 137/6/2
f 137/3/2 134/3/2 138/3/2
f 135/8/2 136/8/2 139/8/2
f 139/8/2 136/8/2 140/8/2
f 139/5/2 140/5/2 143/5/2
f 143/5/2 140/5/2 144/5/2
f 141/5/2 142/5/2 145/5/2
f 145/5/2 142/5/2 146/5/2
f 144/5/2 145/5/2 147/5/2
f 147/5/2 145/5/2 148/5/2
f 149/3/2 150/3/2 151/3/2
f 151/3/2 150/3/2 152/3/2
f 151/5/2 152/5/2 153/5/2
f 153/5/2 152/5/2 154/5/2
f 155/3/2 156/3/2 157/3/2
f 157/3/2 156/3/2 158/3/2
f 159/8/2 160/8/2 162/8/2
f 161/8/2 162/8/2 163/8/2
f 162/8/2 160/8/2 164/8/2
f 163/8/2 162/8/2 164/8/2
f 163/5/2 164/5/2 165/5/2
f 165/5/2 164/5/2 166/5/2
f 170/5/3 168/5/3 167/5/3
f 171/8/3 170/8/3 169/8/3
f 172/5/3 168/5/3 170/5/3
f 172/8/3 170/8/3 171/8/3
f 174/5/3 168/5/3 172/5/3
f 175/8/3 174/8/3 173/8/3
f 176/5/3 168/5/3 174/5/3
f 176/8/3 174/8/3 175/8/3
f 177/5/3 168/5/3 176/5/3
f 186/8/3 179/8/3 178/8/3
f 187/5/3 180/5/3 179/5/3
f 187/8/3 179/8/3 186/8/3
f 188/5/3 180/5/3 187/5/3
f 190/5/3 183/5/3 182/5/3
f 191/3/3 185/3/3 184/3/3
f 192/6/3 186/6/3 185/6/3
f 192/3/3 185/3/3 191/3/3
f 193/3/3 187/3/3 186/3/3
f 193/6/3 186/6/3 192/6/3
f 194/3/3 187/3/3 193/3/3
f 195/3/3 191/3/3 190/3/3
f 195/3/3 192/3/3 191/3/3
f 195/3/3 193/3/3 192/3/3
f 197/5/3 190/5/3 182/5/3
f 197/3/3 196/3/3 195/3/3
f 197/3/3 195/3/3 190/3/3
f 198/3/3 196/3/3 197/3/3
f 199/3/3 196/3/3 198/3/3
f 200/3/3 196/3/3 199/3/3
f 201/3/3 196/3/3 200/3/3
f 202/7/3 182/7/3 181/7/3
f 203/5/3 197/5/3 182/5/3
f 203/7/3 182/7/3 202/7/3
f 204/5/3 197/5/3 203/5/3
f 205/3/3 199/3/3 198/3/3
f 206/6/3 200/6/3 199/6/3
f 206/3/3 199/3/3 205/3/3
f 207/6/3 200/6/3 206/6/3
f 209/5/3 189/5/3 188/5/3
f 210/5/3 189/5/3 209/5/3
f 211/8/3 208/8/3 207/8/3
f 212/5/3 209/5/3 208/5/3
f 212/8/3 208/8/3 211/8/3
f 213/5/3 209/5/3 212/5/3
f 221/3/3 215/3/3 214/3/3
f 222/3/3 215/3/3 221/3/3
f 223/5/3 216/5/3 215/5/3
f 223/3/3 215/3/3 222/3/3
f 224/5/3 216/5/3 223/5/3
f 226/3/3 218/3/3 217/3/3
f 227/3/3 218/3/3 226/3/3
f 228/8/3 220/8/3 219/8/3
f 229/7/3 221/7/3 220/7/3
f 229/8/3 220/8/3 228/8/3
f 230/7/3 221/7/3 229/7/3
f 231/3/3 225/3/3 224/3/3
f 232/3/3 225/3/3 231/3/3
f 240/5/3 234/5/3 233/5/3
f 241/5/3 234/5/3 240/5/3
f 242/8/3 236/8/3 235/8/3
f 243/7/3 237/7/3 236/7/3
f 243/8/3 236/8/3 242/8/3
f 244/7/3 237/7/3 243/7/3
f 247/3/3 239/3/3 238/3/3
f 248/3/3 239/3/3 247/3/3
f 251/3/3 246/3/3 245/3/3
f 251/3/3 245/3/3 244/3/3
f 252/5/3 247/5/3 246/5/3
f 252/3/3 246/3/3 251/3/3
f 253/5/3 247/5/3 252/5/3
f 254/3/3 250/3/3 249/3/3
f 255/3/3 250/3/3 254/3/3
f 258/8/3 257/8/3 256/8/3
f 259/8/3 257/8/3 258/8/3
f 262/8/3 261/8/3 260/8/3
f 263/8/3 261/8/3 262/8/3
f 264/3/4 265/3/4 271/3/4
f 271/3/4 265/3/4 272/3/4
f 265/5/4 266/5/4 273/5/4
f 272/3/4 265/3/4 273/3/4
f 273/5/4 266/5/4 274/5/4
f 267/3/4 268/3/4 276/3/4
f 276/3/4 268/3/4 277/3/4
f 269/8/4 270/8/4 278/8/4
f 270/7/4 271/7/4 279/7/4
f 278/8/4 270/8/4 279/8/4
f 279/7/4 271/7/4 280/7/4
f 274/3/4 275/3/4 281/3/4
f 281/3/4 275/3/4 282/3/4
f 283/8/4 284/8/4 288/8/4
f 284/7/4 285/7/4 289/7/4
f 288/8/4 284/8/4 289/8/4
f 289/7/4 285/7/4 290/7/4
f 286/3/4 287/3/4 293/3/4
f 293/3/4 287/3/4 294/3/4
f 291/3/4 292/3/4 297/3/4
f 290/3/4 291/3/4 297/3/4
f 292/5/4 293/5/4 298/5/4
f 297/3/4 292/3/4 298/3/4
f 298/5/4 293/5/4 299/5/4
f 295/3/4 296/3/4 300/3/4
f 300/3/4 296/3/4 301/3/4
f 303/5/4 304/5/4 307/5/4
f 305/3/4 306/3/4 308/3/4
f 303/5/4 307/5/4 311/5/4
f 307/3/4 308/3/4 311/3/4
f 308/3/4 306/3/4 312/3/4
f 311/3/4 308/3/4 312/3/4
f 309/5/4 310/5/4 313/5/4
f 313/5/4 310/5/4 314/5/4
f 302/7/4 303/7/4 315/7/4
f 303/5/4 311/5/4 316/5/4
f 315/7/4 303/7/4 316/7/4
f 316/5/4 311/5/4 317/5/4
f 312/3/4 306/3/4 318/3/4
f 318/3/4 306/3/4 319/3/4
f 320/8/4 321/8/4 323/8/4
f 321/5/4 322/5/4 323/5/4
f 323/5/4 322/5/4 324/5/4
f 320/8/4 323/8/4 326/8/4
f 324/5/4 325/5/4 327/5/4
f 327/5/4 325/5/4 328/5/4
f 320/8/4 326/8/4 329/8/4
f 326/5/4 327/5/4 330/5/4
f 329/8/4 326/8/4 330/8/4
f 330/5/4 327/5/4 331/5/4
f 332/5/4 333/5/4 334/5/4
f 334/5/4 333/5/4 335/5/4
f 340/8/5 337/8/5 336/8/5
f 341/8/5 337/8/5 340/8/5
f 342/8/5 339/8/5 338/8/5
f 343/8/5 339/8/5 342/8/5
f 347/7/5 345/7/5 344/7/5
f 348/7/5 345/7/5 347/7/5
f 349/7/5 345/7/5 348/7/5
f 350/7/5 345/7/5 349/7/5
f 352/3/5 347/3/5 346/3/5
f 353/3/5 347/3/5 352/3/5
f 354/7/5 349/7/5 348/7/5
f 355/7/5 349/7/5 354/7/5
f 356/3/5 351/3/5 350/3/5
f 357/3/5 351/3/5 356/3/5
f 358/7/5 355/7/5 354/7/5
f 358/7/5 356/7/5 355/7/5
f 358/7/5 354/7/5 353/7/5
f 359/7/5 356/7/5 358/7/5
f 364/3/5 361/3/5 360/3/5
f 365/3/5 361/3/5 364/3/5
f 366/3/5 363/3/5 362/3/5
f 367/3/5 363/3/5 366/3/5
f 372/3/5 369/3/5 368/3/5
f 373/3/5 369/3/5 372/3/5
f 374/3/5 371/3/5 370/3/5
f 375/3/5 371/3/5 374/3/5
f 380/3/5 377/3/5 376/3/5
f 381/3/5 377/3/5 380/3/5
f 382/3/5 379/3/5 378/3/5
f 383/3/5 379/3/5 382/3/5
f 386/8/5 385/8/5 384/8/5
f 389/8/5 386/8/5 384/8/5
f 389/8/5 388/8/5 387/8/5
f 389/8/5 387/8/5 386/8/5
f 390/8/5 388/8/5 389/8/5
f 397/8/5 392/8/5 391/8/5
f 398/8/5 392/8/5 397/8/5
f 399/8/5 394/8/5 393/8/5
f 400/8/5 394/8/5 399/8/5
f 402/8/5 396/8/5 395/8/5
f 403/8/5 401/8/5 400/8/5
f 404/8/5 402/8/5 395/8/5
f 405/8/5 402/8/5 404/8/5
f 406/8/5 401/8/5 403/8/5
f 407/8/5 401/8/5 406/8/5
f 412/5/5 409/5/5 408/5/5
f 413/5/5 409/5/5 412/5/5
f 414/5/5 411/5/5 410/5/5
f 415/5/5 411/5/5 414/5/5
f 418/5/5 417/5/5 416/5/5
f 419/5/5 417/5/5 418/5/5
f 420/5/6 421/5/6 425/5/6
f 425/5/6 421/5/6 426/5/6
f 422/5/6 423/5/6 427/5/6
f 427/5/6 423/5/6 428/5/6
f 424/5/6 425/5/6 430/5/6
f 430/5/6 425/5/6 431/5/6
f 428/5/6 429/5/6 434/5/6
f 434/5/6 429/5/6 435/5/6
f 431/5/6 432/5/6 436/5/6
f 436/5/6 432/5/6 437/5/6
f 433/5/6 434/5/6 438/5/6
f 438/5/6 434/5/6 439/5/6
f 440/3/6 441/3/6 444/3/6
f 444/3/6 441/3/6 445/3/6
f 442/3/6 443/3/6 446/3/6
f 446/3/6 443/3/6 447/3/6
f 448/5/6 449/5/6 451/5/6
f 451/5/6 449/5/6 452/5/6
f 450/5/6 451/5/6 454/5/6
f 454/5/6 451/5/6 455/5/6
f 452/5/6 453/5/6 456/5/6
f 456/5/6 453/5/6 457/5/6
f 455/5/6 456/5/6 458/5/6
f 458/5/6 456/5/6 459/5/6
f 460/5/6 461/5/6 462/5/6
f 462/5/6 461/5/6 463/5/6
f 460/5/6 462/5/6 464/5/6
f 463/5/6 461/5/6 465/5/6
f 460/5/6 464/5/6 466/5/6
f 464/5/6 465/5/6 466/5/6
f 465/5/6 461/5/6 467/5/6
f 466/5/6 465/5/6 467/5/6
f 468/5/6 469/5/6 470/5/6
f 470/5/6 469/5/6 471/5/6
