# MagicaVoxel @ Ephtracy

# group
o 

# material
mtllib spec10.mtl
usemtl palette

# normals
vn -1 0 0
vn 1 0 0
vn 0 0 1
vn 0 0 -1
vn 0 -1 0
vn 0 1 0

# texcoords
vt 0.0332031 0.5
vt 0.0371094 0.5
vt 0.580078 0.5
vt 0.587891 0.5
vt 0.677734 0.5
vt 0.958984 0.5
vt 0.966797 0.5
vt 0.994141 0.5

# verts
v -0.3 0.3 0
v -0.3 0.3 -0.1
v -0.3 0.6 0
v -0.3 0.6 -0.1
v -0.3 0.7 0
v -0.3 0.7 -0.1
v -0.3 0.9 0
v -0.3 0.9 -0.1
v -0.3 1 0
v -0.3 1 -0.1
v -0.3 1 -0.3
v -0.3 1.1 0.1
v -0.3 1.1 -0.1
v -0.3 1.2 0.1
v -0.3 1.2 -0.3
v -0.3 1.3 0.1
v -0.3 1.3 -0.3
v -0.2 0 0
v -0.2 0 -0.1
v -0.2 0.1 0
v -0.2 0.1 -0.1
v -0.2 0.3 0.1
v -0.2 0.3 0
v -0.2 0.3 -0.1
v -0.2 0.3 -0.2
v -0.2 0.4 0.1
v -0.2 0.4 0
v -0.2 0.4 -0.1
v -0.2 0.4 -0.2
v -0.2 0.6 0
v -0.2 0.6 -0.1
v -0.2 0.7 0.1
v -0.2 0.7 0
v -0.2 0.7 -0.1
v -0.2 0.7 -0.2
v -0.2 0.8 0.1
v -0.2 0.8 0
v -0.2 0.8 -0.1
v -0.2 0.8 -0.2
v -0.2 0.9 0
v -0.2 0.9 -0.1
v -0.2 1 0.1
v -0.2 1 0
v -0.2 1 -0.1
v -0.2 1 -0.2
v -0.2 1.1 0.1
v -0.2 1.1 0
v -0.2 1.1 -0.1
v -0.2 1.2 0.2
v -0.2 1.2 0.1
v -0.2 1.2 -0.3
v -0.2 1.2 -0.5
v -0.2 1.3 0.2
v -0.2 1.3 0.1
v -0.2 1.3 -0.3
v -0.2 1.3 -0.5
v -0.2 1.4 0.1
v -0.2 1.4 -0.3
v -0.1 0.7 0.1
v -0.1 0.7 0
v -0.1 0.7 -0.1
v -0.1 0.7 -0.2
v -0.1 0.8 0.1
v -0.1 0.8 0
v -0.1 0.8 -0.1
v -0.1 0.8 -0.2
v -0.1 1.1 0.2
v -0.1 1.1 0.1
v -0.1 1.2 0.2
v -0.1 1.2 0.1
v -0.1 1.2 -0.5
v -0.1 1.2 -0.6
v -0.1 1.3 -0.5
v -0.1 1.3 -0.6
v -0.1 1.4 0
v -0.1 1.4 -0.2
v -0.1 1.5 0
v -0.1 1.5 -0.2
v 0.1 0 0
v 0.1 0 -0.1
v 0.1 0.1 0
v 0.1 0.1 -0.1
v 0.1 0.3 0
v 0.1 0.3 -0.1
v 0.1 1.1 0.2
v 0.1 1.1 0.1
v 0.1 1.2 0.2
v 0.1 1.2 0.1
v -0.1 0 0
v -0.1 0 -0.1
v -0.1 0.1 0
v -0.1 0.1 -0.1
v -0.1 0.3 0
v -0.1 0.3 -0.1
v 2.98023e-08 1.1 0.2
v 2.98023e-08 1.1 0.1
v 2.98023e-08 1.2 0.2
v 2.98023e-08 1.2 0.1
v 0.1 0.7 0.1
v 0.1 0.7 0
v 0.1 0.7 -0.1
v 0.1 0.7 -0.2
v 0.1 0.8 0.1
v 0.1 0.8 0
v 0.1 0.8 -0.1
v 0.1 0.8 -0.2
v 0.1 1.2 -0.5
v 0.1 1.2 -0.6
v 0.1 1.3 -0.5
v 0.1 1.3 -0.6
v 0.1 1.4 0
v 0.1 1.4 -0.2
v 0.1 1.5 0
v 0.1 1.5 -0.2
v 0.2 0 0
v 0.2 0 -0.1
v 0.2 0.1 0
v 0.2 0.1 -0.1
v 0.2 0.3 0.1
v 0.2 0.3 0
v 0.2 0.3 -0.1
v 0.2 0.3 -0.2
v 0.2 0.4 0.1
v 0.2 0.4 0
v 0.2 0.4 -0.1
v 0.2 0.4 -0.2
v 0.2 0.5 0
v 0.2 0.5 -0.1
v 0.2 0.6 0
v 0.2 0.6 -0.1
v 0.2 0.7 0.1
v 0.2 0.7 0
v 0.2 0.7 -0.1
v 0.2 0.7 -0.2
v 0.2 0.8 0.1
v 0.2 0.8 0
v 0.2 0.8 -0.1
v 0.2 0.8 -0.2
v 0.2 0.9 0
v 0.2 0.9 -0.1
v 0.2 1 0.1
v 0.2 1 0
v 0.2 1 -0.1
v 0.2 1 -0.2
v 0.2 1.1 0.2
v 0.2 1.1 0.1
v 0.2 1.1 0
v 0.2 1.1 -0.2
v 0.2 1.2 0.2
v 0.2 1.2 0.1
v 0.2 1.2 -0.3
v 0.2 1.2 -0.5
v 0.2 1.3 0.2
v 0.2 1.3 0.1
v 0.2 1.3 -0.3
v 0.2 1.3 -0.5
v 0.2 1.4 0.1
v 0.2 1.4 -0.3
v 0.3 0.3 0
v 0.3 0.3 -0.1
v 0.3 0.4 0
v 0.3 0.4 -0.1
v 0.3 0.5 0
v 0.3 0.5 -0.1
v 0.3 0.6 0
v 0.3 0.6 -0.1
v 0.3 0.7 0
v 0.3 0.7 -0.1
v 0.3 0.9 0
v 0.3 0.9 -0.1
v 0.3 1 0
v 0.3 1 -0.1
v 0.3 1 -0.2
v 0.3 1 -0.3
v 0.3 1.1 0.1
v 0.3 1.1 -0.2
v 0.3 1.2 0.1
v 0.3 1.2 -0.3
v 0.3 1.3 0.1
v 0.3 1.3 -0.3
v -0.2 1.2 0.2
v -0.2 1.3 0.2
v -0.1 1.1 0.2
v -0.1 1.2 0.2
v -0.1 1.3 0.2
v 2.98023e-08 1.1 0.2
v 2.98023e-08 1.2 0.2
v 0.1 1.1 0.2
v 0.1 1.2 0.2
v 0.1 1.3 0.2
v 0.2 1.1 0.2
v 0.2 1.2 0.2
v 0.2 1.3 0.2
v -0.3 1.1 0.1
v -0.3 1.2 0.1
v -0.3 1.3 0.1
v -0.2 0.3 0.1
v -0.2 0.4 0.1
v -0.2 0.7 0.1
v -0.2 0.8 0.1
v -0.2 1 0.1
v -0.2 1.1 0.1
v -0.2 1.2 0.1
v -0.2 1.3 0.1
v -0.2 1.4 0.1
v -0.1 0.6 0.1
v -0.1 0.7 0.1
v -0.1 0.8 0.1
v -0.1 1 0.1
v -0.1 1.1 0.1
v -0.1 1.2 0.1
v -0.1 1.3 0.1
v -0.1 1.4 0.1
v 2.98023e-08 1.1 0.1
v 2.98023e-08 1.2 0.1
v 0.1 0.6 0.1
v 0.1 0.7 0.1
v 0.1 0.8 0.1
v 0.1 1 0.1
v 0.1 1.1 0.1
v 0.1 1.2 0.1
v 0.1 1.3 0.1
v 0.1 1.4 0.1
v 0.2 0.3 0.1
v 0.2 0.4 0.1
v 0.2 0.7 0.1
v 0.2 0.8 0.1
v 0.2 1 0.1
v 0.2 1.1 0.1
v 0.2 1.2 0.1
v 0.2 1.3 0.1
v 0.2 1.4 0.1
v 0.3 1.1 0.1
v 0.3 1.2 0.1
v 0.3 1.3 0.1
v -0.3 0.3 0
v -0.3 0.6 0
v -0.3 0.7 0
v -0.3 0.9 0
v -0.3 1 0
v -0.2 0 0
v -0.2 0.1 0
v -0.2 0.3 0
v -0.2 0.4 0
v -0.2 0.6 0
v -0.2 0.7 0
v -0.2 0.8 0
v -0.2 0.9 0
v -0.2 1 0
v -0.1 0 0
v -0.1 0.1 0
v -0.1 0.3 0
v -0.1 0.7 0
v -0.1 0.8 0
v -0.1 1.4 0
v -0.1 1.5 0
v 0.1 0 0
v 0.1 0.1 0
v 0.1 0.3 0
v 0.1 0.7 0
v 0.1 0.8 0
v 0.1 1.4 0
v 0.1 1.5 0
v 0.2 0 0
v 0.2 0.1 0
v 0.2 0.3 0
v 0.2 0.4 0
v 0.2 0.5 0
v 0.2 0.6 0
v 0.2 0.7 0
v 0.2 0.8 0
v 0.2 0.9 0
v 0.2 1 0
v 0.3 0.3 0
v 0.3 0.4 0
v 0.3 0.5 0
v 0.3 0.6 0
v 0.3 0.7 0
v 0.3 0.9 0
v 0.3 1 0
v -0.3 1 -0.1
v -0.3 1.1 -0.1
v -0.2 1 -0.1
v -0.2 1.1 -0.1
v 0.2 1 -0.2
v 0.2 1.1 -0.2
v 0.3 1 -0.2
v 0.3 1.1 -0.2
v -0.3 0.3 -0.1
v -0.3 0.6 -0.1
v -0.3 0.7 -0.1
v -0.3 0.9 -0.1
v -0.3 1 -0.1
v -0.2 0 -0.1
v -0.2 0.1 -0.1
v -0.2 0.3 -0.1
v -0.2 0.4 -0.1
v -0.2 0.6 -0.1
v -0.2 0.7 -0.1
v -0.2 0.8 -0.1
v -0.2 0.9 -0.1
v -0.2 1 -0.1
v -0.1 0 -0.1
v -0.1 0.1 -0.1
v -0.1 0.3 -0.1
v -0.1 0.7 -0.1
v -0.1 0.8 -0.1
v 0.1 0 -0.1
v 0.1 0.1 -0.1
v 0.1 0.3 -0.1
v 0.1 0.7 -0.1
v 0.1 0.8 -0.1
v 0.2 0 -0.1
v 0.2 0.1 -0.1
v 0.2 0.3 -0.1
v 0.2 0.4 -0.1
v 0.2 0.5 -0.1
v 0.2 0.6 -0.1
v 0.2 0.7 -0.1
v 0.2 0.8 -0.1
v 0.2 0.9 -0.1
v 0.2 1 -0.1
v 0.3 0.3 -0.1
v 0.3 0.4 -0.1
v 0.3 0.5 -0.1
v 0.3 0.6 -0.1
v 0.3 0.7 -0.1
v 0.3 0.9 -0.1
v 0.3 1 -0.1
v -0.2 0.3 -0.2
v -0.2 0.4 -0.2
v -0.2 0.7 -0.2
v -0.2 0.8 -0.2
v -0.2 1 -0.2
v -0.1 0.7 -0.2
v -0.1 0.8 -0.2
v -0.1 1.4 -0.2
v -0.1 1.5 -0.2
v 0.1 0.7 -0.2
v 0.1 0.8 -0.2
v 0.1 1.4 -0.2
v 0.1 1.5 -0.2
v 0.2 0.3 -0.2
v 0.2 0.4 -0.2
v 0.2 0.7 -0.2
v 0.2 0.8 -0.2
v 0.2 1 -0.2
v -0.3 1 -0.3
v -0.3 1.2 -0.3
v -0.3 1.3 -0.3
v -0.2 1.2 -0.3
v -0.2 1.3 -0.3
v -0.2 1.4 -0.3
v -0.1 1.2 -0.3
v -0.1 1.3 -0.3
v -0.1 1.4 -0.3
v 0.1 1.2 -0.3
v 0.1 1.3 -0.3
v 0.1 1.4 -0.3
v 0.2 1.2 -0.3
v 0.2 1.3 -0.3
v 0.2 1.4 -0.3
v 0.3 1 -0.3
v 0.3 1.2 -0.3
v 0.3 1.3 -0.3
v -0.2 1.2 -0.5
v -0.2 1.3 -0.5
v -0.1 1.2 -0.5
v -0.1 1.3 -0.5
v 0.1 1.2 -0.5
v 0.1 1.3 -0.5
v 0.2 1.2 -0.5
v 0.2 1.3 -0.5
v -0.1 1.2 -0.6
v -0.1 1.3 -0.6
v 0.1 1.2 -0.6
v 0.1 1.3 -0.6
v -0.2 0 0
v -0.1 0 0
v 0.1 0 0
v 0.2 0 0
v -0.2 0 -0.1
v -0.1 0 -0.1
v 0.1 0 -0.1
v 0.2 0 -0.1
v -0.2 0.3 0.1
v 0.2 0.3 0.1
v -0.3 0.3 0
v -0.2 0.3 0
v -0.1 0.3 0
v 0.1 0.3 0
v 0.2 0.3 0
v 0.3 0.3 0
v -0.3 0.3 -0.1
v -0.2 0.3 -0.1
v -0.1 0.3 -0.1
v 0.1 0.3 -0.1
v 0.2 0.3 -0.1
v 0.3 0.3 -0.1
v -0.2 0.3 -0.2
v 0.2 0.3 -0.2
v -0.2 0.8 0.1
v -0.1 0.8 0.1
v 0.1 0.8 0.1
v 0.2 0.8 0.1
v -0.2 0.8 0
v -0.1 0.8 0
v 0.1 0.8 0
v 0.2 0.8 0
v -0.2 0.8 -0.1
v -0.1 0.8 -0.1
v 0.1 0.8 -0.1
v 0.2 0.8 -0.1
v -0.2 0.8 -0.2
v -0.1 0.8 -0.2
v 0.1 0.8 -0.2
v 0.2 0.8 -0.2
v -0.3 0.9 0
v -0.2 0.9 0
v 0.2 0.9 0
v 0.3 0.9 0
v -0.3 0.9 -0.1
v -0.2 0.9 -0.1
v 0.2 0.9 -0.1
v 0.3 0.9 -0.1
v -0.3 1 -0.1
v -0.2 1 -0.1
v -0.2 1 -0.2
v 0.2 1 -0.2
v 0.3 1 -0.2
v -0.3 1 -0.3
v 0.3 1 -0.3
v -0.1 1.1 0.2
v 2.98023e-08 1.1 0.2
v 0.1 1.1 0.2
v 0.2 1.1 0.2
v -0.3 1.1 0.1
v -0.2 1.1 0.1
v -0.1 1.1 0.1
v 2.98023e-08 1.1 0.1
v 0.1 1.1 0.1
v 0.2 1.1 0.1
v 0.3 1.1 0.1
v -0.2 1.1 0
v 0.2 1.1 0
v -0.3 1.1 -0.1
v -0.2 1.1 -0.1
v 0.2 1.1 -0.2
v 0.3 1.1 -0.2
v -0.2 1.2 0.2
v -0.1 1.2 0.2
v 2.98023e-08 1.2 0.2
v 0.1 1.2 0.2
v -0.2 1.2 0.1
v -0.1 1.2 0.1
v 2.98023e-08 1.2 0.1
v 0.1 1.2 0.1
v -0.2 1.2 -0.3
v -0.1 1.2 -0.3
v 0.1 1.2 -0.3
v 0.2 1.2 -0.3
v -0.2 1.2 -0.5
v -0.1 1.2 -0.5
v 0.1 1.2 -0.5
v 0.2 1.2 -0.5
v -0.1 1.2 -0.6
v 0.1 1.2 -0.6
v -0.2 0.7 0.1
v -0.1 0.7 0.1
v 0.1 0.7 0.1
v 0.2 0.7 0.1
v -0.3 0.7 0
v -0.2 0.7 0
v -0.1 0.7 0
v 0.1 0.7 0
v 0.2 0.7 0
v 0.3 0.7 0
v -0.3 0.7 -0.1
v -0.2 0.7 -0.1
v -0.1 0.7 -0.1
v 0.1 0.7 -0.1
v 0.2 0.7 -0.1
v 0.3 0.7 -0.1
v -0.2 0.7 -0.2
v -0.1 0.7 -0.2
v 0.1 0.7 -0.2
v 0.2 0.7 -0.2
v -0.3 1 0
v -0.2 1 0
v 0.2 1 0
v 0.3 1 0
v -0.3 1 -0.1
v -0.2 1 -0.1
v 0.2 1 -0.1
v 0.3 1 -0.1
v -0.2 1.3 0.2
v -0.1 1.3 0.2
v 0.1 1.3 0.2
v 0.2 1.3 0.2
v -0.3 1.3 0.1
v -0.2 1.3 0.1
v -0.1 1.3 0.1
v 0.1 1.3 0.1
v 0.2 1.3 0.1
v 0.3 1.3 0.1
v -0.3 1.3 -0.3
v -0.2 1.3 -0.3
v -0.1 1.3 -0.3
v 0.1 1.3 -0.3
v 0.2 1.3 -0.3
v 0.3 1.3 -0.3
v -0.2 1.3 -0.5
v -0.1 1.3 -0.5
v 0.1 1.3 -0.5
v 0.2 1.3 -0.5
v -0.1 1.3 -0.6
v 0.1 1.3 -0.6
v -0.2 1.4 0.1
v -0.1 1.4 0.1
v 0.1 1.4 0.1
v 0.2 1.4 0.1
v -0.1 1.4 0
v 0.1 1.4 0
v -0.1 1.4 -0.2
v 0.1 1.4 -0.2
v -0.2 1.4 -0.3
v -0.1 1.4 -0.3
v 0.1 1.4 -0.3
v 0.2 1.4 -0.3
v -0.1 1.5 0
v 0.1 1.5 0
v -0.1 1.5 -0.2
v 0.1 1.5 -0.2

# faces
f 3/1/1 2/1/1 1/1/1
f 4/1/1 2/1/1 3/1/1
f 5/8/1 4/8/1 3/8/1
f 6/8/1 4/8/1 5/8/1
f 9/1/1 8/1/1 7/1/1
f 10/1/1 8/1/1 9/1/1
f 13/8/1 11/8/1 10/8/1
f 14/8/1 13/8/1 12/8/1
f 15/8/1 11/8/1 13/8/1
f 15/8/1 13/8/1 14/8/1
f 16/6/1 15/6/1 14/6/1
f 17/6/1 15/6/1 16/6/1
f 20/8/1 19/8/1 18/8/1
f 21/8/1 19/8/1 20/8/1
f 23/5/1 21/5/1 20/5/1
f 24/5/1 21/5/1 23/5/1
f 26/5/1 23/5/1 22/5/1
f 27/5/1 23/5/1 26/5/1
f 28/5/1 25/5/1 24/5/1
f 29/5/1 25/5/1 28/5/1
f 30/8/1 27/8/1 26/8/1
f 31/8/1 29/8/1 28/8/1
f 32/8/1 30/8/1 26/8/1
f 33/8/1 30/8/1 32/8/1
f 34/8/1 29/8/1 31/8/1
f 35/8/1 29/8/1 34/8/1
f 37/1/1 34/1/1 33/1/1
f 38/1/1 34/1/1 37/1/1
f 40/1/1 37/1/1 36/1/1
f 40/1/1 39/1/1 38/1/1
f 40/1/1 38/1/1 37/1/1
f 41/1/1 39/1/1 40/1/1
f 42/1/1 40/1/1 36/1/1
f 43/1/1 40/1/1 42/1/1
f 44/1/1 39/1/1 41/1/1
f 45/1/1 39/1/1 44/1/1
f 46/4/1 43/4/1 42/4/1
f 47/1/1 44/1/1 43/1/1
f 47/4/1 43/4/1 46/4/1
f 48/1/1 44/1/1 47/1/1
f 53/3/1 50/3/1 49/3/1
f 54/3/1 50/3/1 53/3/1
f 55/3/1 52/3/1 51/3/1
f 56/3/1 52/3/1 55/3/1
f 57/3/1 55/3/1 54/3/1
f 58/3/1 55/3/1 57/3/1
f 63/1/1 60/1/1 59/1/1
f 64/1/1 60/1/1 63/1/1
f 65/1/1 62/1/1 61/1/1
f 66/1/1 62/1/1 65/1/1
f 69/8/1 68/8/1 67/8/1
f 70/8/1 68/8/1 69/8/1
f 73/6/1 72/6/1 71/6/1
f 74/6/1 72/6/1 73/6/1
f 77/6/1 76/6/1 75/6/1
f 78/6/1 76/6/1 77/6/1
f 81/8/1 80/8/1 79/8/1
f 82/8/1 80/8/1 81/8/1
f 83/5/1 82/5/1 81/5/1
f 84/5/1 82/5/1 83/5/1
f 87/8/1 86/8/1 85/8/1
f 88/8/1 86/8/1 87/8/1
f 89/8/2 90/8/2 91/8/2
f 91/8/2 90/8/2 92/8/2
f 91/5/2 92/5/2 93/5/2
f 93/5/2 92/5/2 94/5/2
f 95/8/2 96/8/2 97/8/2
f 97/8/2 96/8/2 98/8/2
f 99/1/2 100/1/2 103/1/2
f 103/1/2 100/1/2 104/1/2
f 101/1/2 102/1/2 105/1/2
f 105/1/2 102/1/2 106/1/2
f 107/6/2 108/6/2 109/6/2
f 109/6/2 108/6/2 110/6/2
f 111/6/2 112/6/2 113/6/2
f 113/6/2 112/6/2 114/6/2
f 115/8/2 116/8/2 117/8/2
f 117/8/2 116/8/2 118/8/2
f 117/5/2 118/5/2 120/5/2
f 120/5/2 118/5/2 121/5/2
f 119/5/2 120/5/2 123/5/2
f 123/5/2 120/5/2 124/5/2
f 121/5/2 122/5/2 125/5/2
f 125/5/2 122/5/2 126/5/2
f 123/8/2 124/8/2 127/8/2
f 125/8/2 126/8/2 128/8/2
f 123/8/2 127/8/2 129/8/2
f 128/8/2 126/8/2 130/8/2
f 123/8/2 129/8/2 131/8/2
f 131/8/2 129/8/2 132/8/2
f 130/8/2 126/8/2 133/8/2
f 133/8/2 126/8/2 134/8/2
f 132/1/2 133/1/2 136/1/2
f 136/1/2 133/1/2 137/1/2
f 135/1/2 136/1/2 139/1/2
f 137/1/2 138/1/2 139/1/2
f 136/1/2 137/1/2 139/1/2
f 139/1/2 138/1/2 140/1/2
f 135/1/2 139/1/2 141/1/2
f 141/1/2 139/1/2 142/1/2
f 140/1/2 138/1/2 143/1/2
f 143/1/2 138/1/2 144/1/2
f 141/4/2 142/4/2 146/4/2
f 142/1/2 143/1/2 147/1/2
f 143/1/2 144/1/2 147/1/2
f 146/4/2 142/4/2 147/4/2
f 147/1/2 144/1/2 148/1/2
f 145/8/2 146/8/2 149/8/2
f 149/8/2 146/8/2 150/8/2
f 149/3/2 150/3/2 153/3/2
f 153/3/2 150/3/2 154/3/2
f 151/3/2 152/3/2 155/3/2
f 155/3/2 152/3/2 156/3/2
f 154/3/2 155/3/2 157/3/2
f 157/3/2 155/3/2 158/3/2
f 159/1/2 160/1/2 161/1/2
f 161/1/2 160/1/2 162/1/2
f 161/7/2 162/7/2 163/7/2
f 163/7/2 162/7/2 164/7/2
f 163/1/2 164/1/2 165/1/2
f 165/1/2 164/1/2 166/1/2
f 165/8/2 166/8/2 167/8/2
f 167/8/2 166/8/2 168/8/2
f 169/1/2 170/1/2 171/1/2
f 171/1/2 170/1/2 172/1/2
f 173/8/2 174/8/2 176/8/2
f 175/8/2 176/8/2 177/8/2
f 176/8/2 174/8/2 178/8/2
f 177/8/2 176/8/2 178/8/2
f 177/6/2 178/6/2 179/6/2
f 179/6/2 178/6/2 180/6/2
f 184/3/3 182/3/3 181/3/3
f 185/3/3 182/3/3 184/3/3
f 186/8/3 184/8/3 183/8/3
f 187/6/3 185/6/3 184/6/3
f 187/8/3 184/8/3 186/8/3
f 189/6/3 185/6/3 187/6/3
f 190/6/3 185/6/3 189/6/3
f 191/8/3 189/8/3 188/8/3
f 192/3/3 190/3/3 189/3/3
f 192/8/3 189/8/3 191/8/3
f 193/3/3 190/3/3 192/3/3
f 202/8/3 195/8/3 194/8/3
f 203/6/3 196/6/3 195/6/3
f 203/8/3 195/8/3 202/8/3
f 204/6/3 196/6/3 203/6/3
f 206/8/3 199/8/3 198/8/3
f 207/8/3 199/8/3 206/8/3
f 208/1/3 201/1/3 200/1/3
f 209/4/3 202/4/3 201/4/3
f 209/1/3 201/1/3 208/1/3
f 210/1/3 203/1/3 202/1/3
f 210/4/3 202/4/3 209/4/3
f 211/1/3 203/1/3 210/1/3
f 212/3/3 205/3/3 204/3/3
f 213/3/3 205/3/3 212/3/3
f 214/1/3 208/1/3 207/1/3
f 214/1/3 209/1/3 208/1/3
f 214/1/3 210/1/3 209/1/3
f 216/7/3 207/7/3 206/7/3
f 216/8/3 206/8/3 198/8/3
f 217/1/3 215/1/3 214/1/3
f 217/7/3 207/7/3 216/7/3
f 217/1/3 214/1/3 207/1/3
f 218/1/3 215/1/3 217/1/3
f 219/1/3 215/1/3 218/1/3
f 220/1/3 215/1/3 219/1/3
f 221/1/3 215/1/3 220/1/3
f 222/6/3 213/6/3 212/6/3
f 223/6/3 213/6/3 222/6/3
f 224/5/3 198/5/3 197/5/3
f 225/8/3 216/8/3 198/8/3
f 225/5/3 198/5/3 224/5/3
f 225/8/3 217/8/3 216/8/3
f 226/8/3 217/8/3 225/8/3
f 227/1/3 219/1/3 218/1/3
f 228/4/3 220/4/3 219/4/3
f 228/1/3 219/1/3 227/1/3
f 229/4/3 220/4/3 228/4/3
f 231/3/3 223/3/3 222/3/3
f 232/3/3 223/3/3 231/3/3
f 233/8/3 230/8/3 229/8/3
f 234/6/3 231/6/3 230/6/3
f 234/8/3 230/8/3 233/8/3
f 235/6/3 231/6/3 234/6/3
f 243/1/3 237/1/3 236/1/3
f 244/1/3 237/1/3 243/1/3
f 245/8/3 238/8/3 237/8/3
f 245/1/3 237/1/3 244/1/3
f 246/8/3 238/8/3 245/8/3
f 248/1/3 240/1/3 239/1/3
f 249/1/3 240/1/3 248/1/3
f 250/8/3 242/8/3 241/8/3
f 251/5/3 243/5/3 242/5/3
f 251/8/3 242/8/3 250/8/3
f 252/5/3 243/5/3 251/5/3
f 253/1/3 247/1/3 246/1/3
f 254/1/3 247/1/3 253/1/3
f 262/6/3 256/6/3 255/6/3
f 263/6/3 256/6/3 262/6/3
f 264/8/3 258/8/3 257/8/3
f 265/5/3 259/5/3 258/5/3
f 265/8/3 258/8/3 264/8/3
f 266/5/3 259/5/3 265/5/3
f 270/1/3 261/1/3 260/1/3
f 271/1/3 261/1/3 270/1/3
f 274/1/3 267/1/3 266/1/3
f 275/7/3 268/7/3 267/7/3
f 275/1/3 267/1/3 274/1/3
f 276/1/3 269/1/3 268/1/3
f 276/7/3 268/7/3 275/7/3
f 277/8/3 270/8/3 269/8/3
f 277/1/3 269/1/3 276/1/3
f 278/8/3 270/8/3 277/8/3
f 279/1/3 273/1/3 272/1/3
f 280/1/3 273/1/3 279/1/3
f 283/8/3 282/8/3 281/8/3
f 284/8/3 282/8/3 283/8/3
f 287/8/3 286/8/3 285/8/3
f 288/8/3 286/8/3 287/8/3
f 289/1/4 290/1/4 296/1/4
f 296/1/4 290/1/4 297/1/4
f 290/8/4 291/8/4 298/8/4
f 297/1/4 290/1/4 298/1/4
f 298/8/4 291/8/4 299/8/4
f 292/1/4 293/1/4 301/1/4
f 301/1/4 293/1/4 302/1/4
f 294/8/4 295/8/4 303/8/4
f 295/5/4 296/5/4 304/5/4
f 303/8/4 295/8/4 304/8/4
f 304/5/4 296/5/4 305/5/4
f 299/1/4 300/1/4 306/1/4
f 306/1/4 300/1/4 307/1/4
f 308/8/4 309/8/4 313/8/4
f 309/5/4 310/5/4 314/5/4
f 313/8/4 309/8/4 314/8/4
f 314/5/4 310/5/4 315/5/4
f 311/1/4 312/1/4 319/1/4
f 319/1/4 312/1/4 320/1/4
f 315/1/4 316/1/4 323/1/4
f 316/7/4 317/7/4 324/7/4
f 323/1/4 316/1/4 324/1/4
f 317/1/4 318/1/4 325/1/4
f 324/7/4 317/7/4 325/7/4
f 318/8/4 319/8/4 326/8/4
f 325/1/4 318/1/4 326/1/4
f 326/8/4 319/8/4 327/8/4
f 321/1/4 322/1/4 328/1/4
f 328/1/4 322/1/4 329/1/4
f 331/8/4 332/8/4 335/8/4
f 333/1/4 334/1/4 336/1/4
f 331/8/4 335/8/4 339/8/4
f 335/1/4 336/1/4 339/1/4
f 336/1/4 334/1/4 340/1/4
f 339/1/4 336/1/4 340/1/4
f 337/6/4 338/6/4 341/6/4
f 341/6/4 338/6/4 342/6/4
f 330/5/4 331/5/4 343/5/4
f 331/8/4 339/8/4 344/8/4
f 343/5/4 331/5/4 344/5/4
f 344/8/4 339/8/4 345/8/4
f 340/1/4 334/1/4 346/1/4
f 346/1/4 334/1/4 347/1/4
f 348/8/4 349/8/4 351/8/4
f 349/6/4 350/6/4 351/6/4
f 351/6/4 350/6/4 352/6/4
f 348/8/4 351/8/4 354/8/4
f 352/3/4 353/3/4 355/3/4
f 355/3/4 353/3/4 356/3/4
f 348/8/4 354/8/4 357/8/4
f 355/6/4 356/6/4 358/6/4
f 358/6/4 356/6/4 359/6/4
f 348/8/4 357/8/4 360/8/4
f 358/3/4 359/3/4 361/3/4
f 361/3/4 359/3/4 362/3/4
f 348/8/4 360/8/4 363/8/4
f 360/6/4 361/6/4 364/6/4
f 363/8/4 360/8/4 364/8/4
f 364/6/4 361/6/4 365/6/4
f 366/3/4 367/3/4 368/3/4
f 368/3/4 367/3/4 369/3/4
f 370/3/4 371/3/4 372/3/4
f 372/3/4 371/3/4 373/3/4
f 374/6/4 375/6/4 376/6/4
f 376/6/4 375/6/4 377/6/4
f 382/8/5 379/8/5 378/8/5
f 383/8/5 379/8/5 382/8/5
f 384/8/5 381/8/5 380/8/5
f 385/8/5 381/8/5 384/8/5
f 389/5/5 387/5/5 386/5/5
f 390/5/5 387/5/5 389/5/5
f 391/5/5 387/5/5 390/5/5
f 392/5/5 387/5/5 391/5/5
f 394/1/5 389/1/5 388/1/5
f 395/1/5 389/1/5 394/1/5
f 396/5/5 391/5/5 390/5/5
f 397/5/5 391/5/5 396/5/5
f 398/1/5 393/1/5 392/1/5
f 399/1/5 393/1/5 398/1/5
f 400/5/5 397/5/5 396/5/5
f 400/5/5 398/5/5 397/5/5
f 400/5/5 396/5/5 395/5/5
f 401/5/5 398/5/5 400/5/5
f 406/1/5 403/1/5 402/1/5
f 407/1/5 403/1/5 406/1/5
f 408/1/5 405/1/5 404/1/5
f 409/1/5 405/1/5 408/1/5
f 414/1/5 411/1/5 410/1/5
f 415/1/5 411/1/5 414/1/5
f 416/1/5 413/1/5 412/1/5
f 417/1/5 413/1/5 416/1/5
f 422/1/5 419/1/5 418/1/5
f 423/1/5 419/1/5 422/1/5
f 424/1/5 421/1/5 420/1/5
f 425/1/5 421/1/5 424/1/5
f 428/8/5 427/8/5 426/8/5
f 431/8/5 428/8/5 426/8/5
f 431/8/5 430/8/5 429/8/5
f 431/8/5 429/8/5 428/8/5
f 432/8/5 430/8/5 431/8/5
f 439/8/5 434/8/5 433/8/5
f 440/8/5 434/8/5 439/8/5
f 441/8/5 436/8/5 435/8/5
f 442/8/5 436/8/5 441/8/5
f 444/8/5 438/8/5 437/8/5
f 445/8/5 443/8/5 442/8/5
f 446/8/5 444/8/5 437/8/5
f 447/8/5 444/8/5 446/8/5
f 448/8/5 443/8/5 445/8/5
f 449/8/5 443/8/5 448/8/5
f 454/3/5 451/3/5 450/3/5
f 455/3/5 451/3/5 454/3/5
f 456/6/5 453/6/5 452/6/5
f 457/6/5 453/6/5 456/6/5
f 462/3/5 459/3/5 458/3/5
f 463/6/5 460/6/5 459/6/5
f 463/3/5 459/3/5 462/3/5
f 464/3/5 461/3/5 460/3/5
f 464/6/5 460/6/5 463/6/5
f 465/3/5 461/3/5 464/3/5
f 466/6/5 464/6/5 463/6/5
f 467/6/5 464/6/5 466/6/5
f 468/8/6 469/8/6 473/8/6
f 473/8/6 469/8/6 474/8/6
f 470/8/6 471/8/6 475/8/6
f 475/8/6 471/8/6 476/8/6
f 472/8/6 473/8/6 478/8/6
f 478/8/6 473/8/6 479/8/6
f 476/8/6 477/8/6 482/8/6
f 482/8/6 477/8/6 483/8/6
f 479/8/6 480/8/6 484/8/6
f 484/8/6 480/8/6 485/8/6
f 481/8/6 482/8/6 486/8/6
f 486/8/6 482/8/6 487/8/6
f 488/1/6 489/1/6 492/1/6
f 492/1/6 489/1/6 493/1/6
f 490/1/6 491/1/6 494/1/6
f 494/1/6 491/1/6 495/1/6
f 496/3/6 497/3/6 501/3/6
f 497/6/6 498/6/6 502/6/6
f 501/3/6 497/3/6 502/3/6
f 498/3/6 499/3/6 503/3/6
f 502/6/6 498/6/6 503/6/6
f 503/3/6 499/3/6 504/3/6
f 500/6/6 501/6/6 506/6/6
f 506/6/6 501/6/6 507/6/6
f 504/6/6 505/6/6 510/6/6
f 510/6/6 505/6/6 511/6/6
f 507/3/6 508/3/6 512/3/6
f 508/6/6 509/6/6 513/6/6
f 512/3/6 508/3/6 513/3/6
f 509/3/6 510/3/6 514/3/6
f 513/6/6 509/6/6 514/6/6
f 514/3/6 510/3/6 515/3/6
f 513/6/6 514/6/6 516/6/6
f 516/6/6 514/6/6 517/6/6
f 518/3/6 519/3/6 522/3/6
f 519/6/6 520/6/6 522/6/6
f 520/3/6 521/3/6 523/3/6
f 522/6/6 520/6/6 523/6/6
f 518/3/6 522/3/6 524/3/6
f 523/3/6 521/3/6 525/3/6
f 518/3/6 524/3/6 526/3/6
f 524/6/6 525/6/6 527/6/6
f 526/3/6 524/3/6 527/3/6
f 525/3/6 521/3/6 528/3/6
f 527/6/6 525/6/6 528/6/6
f 528/3/6 521/3/6 529/3/6
f 530/6/6 531/6/6 532/6/6
f 532/6/6 531/6/6 533/6/6
