# MagicaVoxel @ Ephtracy

# group
o 

# material
mtllib spec2.mtl
usemtl palette

# normals
vn -1 0 0
vn 1 0 0
vn 0 0 1
vn 0 0 -1
vn 0 -1 0
vn 0 1 0

# texcoords
vt 0.00195312 0.5
vt 0.00976562 0.5
vt 0.0136719 0.5
vt 0.0175781 0.5
vt 0.0332031 0.5
vt 0.0371094 0.5
vt 0.0410156 0.5
vt 0.958984 0.5
vt 0.986328 0.5
vt 0.994141 0.5

# verts
v 0.7 1.3 -1
v 0.7 1.3 -1.1
v 0.7 1.4 -1
v 0.7 1.4 -1.1
v 0.7 1.5 -1
v 0.7 1.5 -1.1
v 0.7 1.6 -1
v 0.7 1.6 -1.1
v 0.7 1.7 -1
v 0.7 1.7 -1.1
v 0.7 1.9 -1
v 0.7 1.9 -1.1
v 0.7 2 -1
v 0.7 2 -1.1
v 0.7 2 -1.3
v 0.7 2.1 -0.9
v 0.7 2.1 -1.1
v 0.7 2.2 -0.9
v 0.7 2.2 -1.3
v 0.7 2.3 -0.9
v 0.7 2.3 -1.3
v 0.8 1 -1
v 0.8 1 -1.1
v 0.8 1.1 -1
v 0.8 1.1 -1.1
v 0.8 1.3 -0.9
v 0.8 1.3 -1
v 0.8 1.3 -1.1
v 0.8 1.3 -1.2
v 0.8 1.4 -0.9
v 0.8 1.4 -1
v 0.8 1.4 -1.1
v 0.8 1.4 -1.2
v 0.8 1.5 -1
v 0.8 1.5 -1.1
v 0.8 1.6 -1
v 0.8 1.6 -1.1
v 0.8 1.7 -0.9
v 0.8 1.7 -1
v 0.8 1.7 -1.1
v 0.8 1.7 -1.2
v 0.8 1.8 -0.9
v 0.8 1.8 -1
v 0.8 1.8 -1.1
v 0.8 1.8 -1.2
v 0.8 1.9 -1
v 0.8 1.9 -1.1
v 0.8 2 -0.9
v 0.8 2 -1
v 0.8 2 -1.1
v 0.8 2 -1.2
v 0.8 2.1 -0.9
v 0.8 2.1 -1
v 0.8 2.1 -1.1
v 0.8 2.2 -0.8
v 0.8 2.2 -0.9
v 0.8 2.2 -1.3
v 0.8 2.2 -1.4
v 0.8 2.3 -0.8
v 0.8 2.3 -0.9
v 0.8 2.3 -1.3
v 0.8 2.3 -1.4
v 0.8 2.4 -0.9
v 0.8 2.4 -1.3
v 0.9 1.7 -0.9
v 0.9 1.7 -1
v 0.9 1.7 -1.1
v 0.9 1.7 -1.2
v 0.9 1.8 -0.9
v 0.9 1.8 -1
v 0.9 1.8 -1.1
v 0.9 1.8 -1.2
v 0.9 2.1 -0.8
v 0.9 2.1 -0.9
v 0.9 2.2 -0.8
v 0.9 2.2 -0.9
v 0.9 2.4 -1
v 0.9 2.4 -1.2
v 0.9 2.5 -1
v 0.9 2.5 -1.2
v 1.1 1 -1
v 1.1 1 -1.1
v 1.1 1.1 -1
v 1.1 1.1 -1.1
v 1.1 1.3 -1
v 1.1 1.3 -1.1
v 1.1 2.1 -0.8
v 1.1 2.1 -0.9
v 1.1 2.2 -0.8
v 1.1 2.2 -0.9
v 0.9 1 -1
v 0.9 1 -1.1
v 0.9 1.1 -1
v 0.9 1.1 -1.1
v 0.9 1.3 -1
v 0.9 1.3 -1.1
v 1 2.1 -0.8
v 1 2.1 -0.9
v 1 2.2 -0.8
v 1 2.2 -0.9
v 1.1 1.7 -0.9
v 1.1 1.7 -1
v 1.1 1.7 -1.1
v 1.1 1.7 -1.2
v 1.1 1.8 -0.9
v 1.1 1.8 -1
v 1.1 1.8 -1.1
v 1.1 1.8 -1.2
v 1.1 2.4 -1
v 1.1 2.4 -1.2
v 1.1 2.5 -1
v 1.1 2.5 -1.2
v 1.2 1 -1
v 1.2 1 -1.1
v 1.2 1.1 -1
v 1.2 1.1 -1.1
v 1.2 1.3 -0.9
v 1.2 1.3 -1
v 1.2 1.3 -1.1
v 1.2 1.3 -1.2
v 1.2 1.4 -0.9
v 1.2 1.4 -1
v 1.2 1.4 -1.1
v 1.2 1.4 -1.2
v 1.2 1.5 -1
v 1.2 1.5 -1.1
v 1.2 1.6 -1
v 1.2 1.6 -1.1
v 1.2 1.7 -0.9
v 1.2 1.7 -1
v 1.2 1.7 -1.1
v 1.2 1.7 -1.2
v 1.2 1.8 -0.9
v 1.2 1.8 -1
v 1.2 1.8 -1.1
v 1.2 1.8 -1.2
v 1.2 1.9 -1
v 1.2 1.9 -1.1
v 1.2 2 -0.9
v 1.2 2 -1
v 1.2 2 -1.1
v 1.2 2 -1.2
v 1.2 2.1 -0.8
v 1.2 2.1 -0.9
v 1.2 2.1 -1
v 1.2 2.1 -1.2
v 1.2 2.2 -0.8
v 1.2 2.2 -0.9
v 1.2 2.2 -1.3
v 1.2 2.2 -1.4
v 1.2 2.3 -0.8
v 1.2 2.3 -0.9
v 1.2 2.3 -1.3
v 1.2 2.3 -1.4
v 1.2 2.4 -0.9
v 1.2 2.4 -1.3
v 1.3 1.3 -1
v 1.3 1.3 -1.1
v 1.3 1.4 -1
v 1.3 1.4 -1.1
v 1.3 1.5 -1
v 1.3 1.5 -1.1
v 1.3 1.6 -1
v 1.3 1.6 -1.1
v 1.3 1.7 -1
v 1.3 1.7 -1.1
v 1.3 1.9 -1
v 1.3 1.9 -1.1
v 1.3 2 -1
v 1.3 2 -1.1
v 1.3 2 -1.2
v 1.3 2 -1.3
v 1.3 2.1 -0.9
v 1.3 2.1 -1.2
v 1.3 2.2 -0.9
v 1.3 2.2 -1.2
v 1.3 2.2 -1.3
v 1.3 2.3 -0.9
v 1.3 2.3 -1.3
v 0.8 2.2 -0.8
v 0.8 2.3 -0.8
v 0.9 2.1 -0.8
v 0.9 2.2 -0.8
v 1 2.1 -0.8
v 1 2.2 -0.8
v 1.1 2.1 -0.8
v 1.1 2.2 -0.8
v 1.2 2.1 -0.8
v 1.2 2.2 -0.8
v 1.2 2.3 -0.8
v 0.7 2.1 -0.9
v 0.7 2.2 -0.9
v 0.7 2.3 -0.9
v 0.8 1.3 -0.9
v 0.8 1.4 -0.9
v 0.8 1.7 -0.9
v 0.8 1.8 -0.9
v 0.8 2 -0.9
v 0.8 2.1 -0.9
v 0.8 2.2 -0.9
v 0.8 2.3 -0.9
v 0.8 2.4 -0.9
v 0.9 1.7 -0.9
v 0.9 1.8 -0.9
v 0.9 2 -0.9
v 0.9 2.1 -0.9
v 0.9 2.2 -0.9
v 1 2.1 -0.9
v 1 2.2 -0.9
v 1.1 1.7 -0.9
v 1.1 1.8 -0.9
v 1.1 2 -0.9
v 1.1 2.1 -0.9
v 1.1 2.2 -0.9
v 1.2 1.3 -0.9
v 1.2 1.4 -0.9
v 1.2 1.7 -0.9
v 1.2 1.8 -0.9
v 1.2 2 -0.9
v 1.2 2.1 -0.9
v 1.2 2.2 -0.9
v 1.2 2.3 -0.9
v 1.2 2.4 -0.9
v 1.3 2.1 -0.9
v 1.3 2.2 -0.9
v 1.3 2.3 -0.9
v 0.7 1.3 -1
v 0.7 1.4 -1
v 0.7 1.5 -1
v 0.7 1.6 -1
v 0.7 1.7 -1
v 0.7 1.9 -1
v 0.7 2 -1
v 0.8 1 -1
v 0.8 1.1 -1
v 0.8 1.3 -1
v 0.8 1.4 -1
v 0.8 1.5 -1
v 0.8 1.6 -1
v 0.8 1.7 -1
v 0.8 1.8 -1
v 0.8 1.9 -1
v 0.8 2 -1
v 0.9 1 -1
v 0.9 1.1 -1
v 0.9 1.3 -1
v 0.9 1.7 -1
v 0.9 1.8 -1
v 0.9 2.4 -1
v 0.9 2.5 -1
v 1.1 1 -1
v 1.1 1.1 -1
v 1.1 1.3 -1
v 1.1 1.7 -1
v 1.1 1.8 -1
v 1.1 2.4 -1
v 1.1 2.5 -1
v 1.2 1 -1
v 1.2 1.1 -1
v 1.2 1.3 -1
v 1.2 1.4 -1
v 1.2 1.5 -1
v 1.2 1.6 -1
v 1.2 1.7 -1
v 1.2 1.8 -1
v 1.2 1.9 -1
v 1.2 2 -1
v 1.3 1.3 -1
v 1.3 1.4 -1
v 1.3 1.5 -1
v 1.3 1.6 -1
v 1.3 1.7 -1
v 1.3 1.9 -1
v 1.3 2 -1
v 0.7 2 -1.1
v 0.7 2.1 -1.1
v 0.8 2 -1.1
v 0.8 2.1 -1.1
v 1.2 2 -1.2
v 1.2 2.1 -1.2
v 1.3 2 -1.2
v 1.3 2.1 -1.2
v 0.7 1.3 -1.1
v 0.7 1.4 -1.1
v 0.7 1.5 -1.1
v 0.7 1.6 -1.1
v 0.7 1.7 -1.1
v 0.7 1.9 -1.1
v 0.7 2 -1.1
v 0.8 1 -1.1
v 0.8 1.1 -1.1
v 0.8 1.3 -1.1
v 0.8 1.4 -1.1
v 0.8 1.5 -1.1
v 0.8 1.6 -1.1
v 0.8 1.7 -1.1
v 0.8 1.8 -1.1
v 0.8 1.9 -1.1
v 0.8 2 -1.1
v 0.9 1 -1.1
v 0.9 1.1 -1.1
v 0.9 1.3 -1.1
v 0.9 1.7 -1.1
v 0.9 1.8 -1.1
v 1.1 1 -1.1
v 1.1 1.1 -1.1
v 1.1 1.3 -1.1
v 1.1 1.7 -1.1
v 1.1 1.8 -1.1
v 1.2 1 -1.1
v 1.2 1.1 -1.1
v 1.2 1.3 -1.1
v 1.2 1.4 -1.1
v 1.2 1.5 -1.1
v 1.2 1.6 -1.1
v 1.2 1.7 -1.1
v 1.2 1.8 -1.1
v 1.2 1.9 -1.1
v 1.2 2 -1.1
v 1.3 1.3 -1.1
v 1.3 1.4 -1.1
v 1.3 1.5 -1.1
v 1.3 1.6 -1.1
v 1.3 1.7 -1.1
v 1.3 1.9 -1.1
v 1.3 2 -1.1
v 0.8 1.3 -1.2
v 0.8 1.4 -1.2
v 0.8 1.7 -1.2
v 0.8 1.8 -1.2
v 0.8 2 -1.2
v 0.9 1.7 -1.2
v 0.9 1.8 -1.2
v 0.9 2.4 -1.2
v 0.9 2.5 -1.2
v 1.1 1.7 -1.2
v 1.1 1.8 -1.2
v 1.1 2 -1.2
v 1.1 2.4 -1.2
v 1.1 2.5 -1.2
v 1.2 1.3 -1.2
v 1.2 1.4 -1.2
v 1.2 1.7 -1.2
v 1.2 1.8 -1.2
v 1.2 2 -1.2
v 0.7 2 -1.3
v 0.7 2.2 -1.3
v 0.7 2.3 -1.3
v 0.8 2.2 -1.3
v 0.8 2.3 -1.3
v 0.8 2.4 -1.3
v 1.1 2 -1.3
v 1.1 2.2 -1.3
v 1.2 2 -1.3
v 1.2 2.2 -1.3
v 1.2 2.3 -1.3
v 1.2 2.4 -1.3
v 1.3 2 -1.3
v 1.3 2.2 -1.3
v 1.3 2.3 -1.3
v 0.8 2.2 -1.4
v 0.8 2.3 -1.4
v 1.2 2.2 -1.4
v 1.2 2.3 -1.4
v 0.8 1 -1
v 0.9 1 -1
v 1.1 1 -1
v 1.2 1 -1
v 0.8 1 -1.1
v 0.9 1 -1.1
v 1.1 1 -1.1
v 1.2 1 -1.1
v 0.8 1.3 -0.9
v 1.2 1.3 -0.9
v 0.7 1.3 -1
v 0.8 1.3 -1
v 0.9 1.3 -1
v 1.1 1.3 -1
v 1.2 1.3 -1
v 1.3 1.3 -1
v 0.7 1.3 -1.1
v 0.8 1.3 -1.1
v 0.9 1.3 -1.1
v 1.1 1.3 -1.1
v 1.2 1.3 -1.1
v 1.3 1.3 -1.1
v 0.8 1.3 -1.2
v 1.2 1.3 -1.2
v 0.8 1.8 -0.9
v 0.9 1.8 -0.9
v 1.1 1.8 -0.9
v 1.2 1.8 -0.9
v 0.8 1.8 -1
v 0.9 1.8 -1
v 1.1 1.8 -1
v 1.2 1.8 -1
v 0.8 1.8 -1.1
v 0.9 1.8 -1.1
v 1.1 1.8 -1.1
v 1.2 1.8 -1.1
v 0.8 1.8 -1.2
v 0.9 1.8 -1.2
v 1.1 1.8 -1.2
v 1.2 1.8 -1.2
v 0.7 1.9 -1
v 0.8 1.9 -1
v 1.2 1.9 -1
v 1.3 1.9 -1
v 0.7 1.9 -1.1
v 0.8 1.9 -1.1
v 1.2 1.9 -1.1
v 1.3 1.9 -1.1
v 0.7 2 -1.1
v 0.8 2 -1.1
v 0.8 2 -1.2
v 1.1 2 -1.2
v 1.2 2 -1.2
v 1.3 2 -1.2
v 0.7 2 -1.3
v 1.1 2 -1.3
v 1.2 2 -1.3
v 1.3 2 -1.3
v 0.9 2.1 -0.8
v 1 2.1 -0.8
v 1.1 2.1 -0.8
v 1.2 2.1 -0.8
v 0.7 2.1 -0.9
v 0.8 2.1 -0.9
v 0.9 2.1 -0.9
v 1 2.1 -0.9
v 1.1 2.1 -0.9
v 1.2 2.1 -0.9
v 1.3 2.1 -0.9
v 0.8 2.1 -1
v 1.2 2.1 -1
v 0.7 2.1 -1.1
v 0.8 2.1 -1.1
v 1.2 2.1 -1.2
v 1.3 2.1 -1.2
v 0.8 2.2 -0.8
v 0.9 2.2 -0.8
v 1 2.2 -0.8
v 1.1 2.2 -0.8
v 0.8 2.2 -0.9
v 0.9 2.2 -0.9
v 1 2.2 -0.9
v 1.1 2.2 -0.9
v 0.8 2.2 -1.3
v 1.1 2.2 -1.3
v 1.2 2.2 -1.3
v 0.8 2.2 -1.4
v 1.2 2.2 -1.4
v 0.8 1.7 -0.9
v 0.9 1.7 -0.9
v 1.1 1.7 -0.9
v 1.2 1.7 -0.9
v 0.7 1.7 -1
v 0.8 1.7 -1
v 0.9 1.7 -1
v 1.1 1.7 -1
v 1.2 1.7 -1
v 1.3 1.7 -1
v 0.7 1.7 -1.1
v 0.8 1.7 -1.1
v 0.9 1.7 -1.1
v 1.1 1.7 -1.1
v 1.2 1.7 -1.1
v 1.3 1.7 -1.1
v 0.8 1.7 -1.2
v 0.9 1.7 -1.2
v 1.1 1.7 -1.2
v 1.2 1.7 -1.2
v 0.7 2 -1
v 0.8 2 -1
v 1.2 2 -1
v 1.3 2 -1
v 0.7 2 -1.1
v 0.8 2 -1.1
v 1.2 2 -1.1
v 1.3 2 -1.1
v 0.8 2.3 -0.8
v 1.2 2.3 -0.8
v 0.7 2.3 -0.9
v 0.8 2.3 -0.9
v 1.2 2.3 -0.9
v 1.3 2.3 -0.9
v 0.7 2.3 -1.3
v 0.8 2.3 -1.3
v 1.2 2.3 -1.3
v 1.3 2.3 -1.3
v 0.8 2.3 -1.4
v 1.2 2.3 -1.4
v 0.8 2.4 -0.9
v 1.2 2.4 -0.9
v 0.9 2.4 -1
v 1.1 2.4 -1
v 0.9 2.4 -1.2
v 1.1 2.4 -1.2
v 0.8 2.4 -1.3
v 1.2 2.4 -1.3
v 0.9 2.5 -1
v 1.1 2.5 -1
v 0.9 2.5 -1.2
v 1.1 2.5 -1.2

# faces
f 3/6/1 2/6/1 1/6/1
f 4/6/1 2/6/1 3/6/1
f 5/4/1 4/4/1 3/4/1
f 6/4/1 4/4/1 5/4/1
f 7/6/1 6/6/1 5/6/1
f 8/6/1 6/6/1 7/6/1
f 9/8/1 8/8/1 7/8/1
f 10/8/1 8/8/1 9/8/1
f 13/6/1 12/6/1 11/6/1
f 14/6/1 12/6/1 13/6/1
f 17/2/1 15/2/1 14/2/1
f 18/2/1 17/2/1 16/2/1
f 19/2/1 15/2/1 17/2/1
f 19/2/1 17/2/1 18/2/1
f 20/1/1 19/1/1 18/1/1
f 21/1/1 19/1/1 20/1/1
f 24/10/1 23/10/1 22/10/1
f 25/10/1 23/10/1 24/10/1
f 27/9/1 25/9/1 24/9/1
f 28/9/1 25/9/1 27/9/1
f 30/9/1 27/9/1 26/9/1
f 31/9/1 27/9/1 30/9/1
f 32/9/1 29/9/1 28/9/1
f 33/9/1 29/9/1 32/9/1
f 34/8/1 31/8/1 30/8/1
f 35/8/1 33/8/1 32/8/1
f 36/8/1 34/8/1 30/8/1
f 37/8/1 33/8/1 35/8/1
f 38/8/1 36/8/1 30/8/1
f 39/8/1 36/8/1 38/8/1
f 40/8/1 33/8/1 37/8/1
f 41/8/1 33/8/1 40/8/1
f 43/6/1 40/6/1 39/6/1
f 44/6/1 40/6/1 43/6/1
f 46/6/1 43/6/1 42/6/1
f 46/6/1 45/6/1 44/6/1
f 46/6/1 44/6/1 43/6/1
f 47/6/1 45/6/1 46/6/1
f 48/6/1 46/6/1 42/6/1
f 49/6/1 46/6/1 48/6/1
f 50/6/1 45/6/1 47/6/1
f 51/6/1 45/6/1 50/6/1
f 52/10/1 49/10/1 48/10/1
f 53/6/1 50/6/1 49/6/1
f 53/10/1 49/10/1 52/10/1
f 54/6/1 50/6/1 53/6/1
f 59/1/1 56/1/1 55/1/1
f 60/1/1 56/1/1 59/1/1
f 61/1/1 58/1/1 57/1/1
f 62/1/1 58/1/1 61/1/1
f 63/1/1 61/1/1 60/1/1
f 64/1/1 61/1/1 63/1/1
f 69/6/1 66/6/1 65/6/1
f 70/6/1 66/6/1 69/6/1
f 71/6/1 68/6/1 67/6/1
f 72/6/1 68/6/1 71/6/1
f 75/2/1 74/2/1 73/2/1
f 76/2/1 74/2/1 75/2/1
f 79/1/1 78/1/1 77/1/1
f 80/1/1 78/1/1 79/1/1
f 83/10/1 82/10/1 81/10/1
f 84/10/1 82/10/1 83/10/1
f 85/9/1 84/9/1 83/9/1
f 86/9/1 84/9/1 85/9/1
f 89/2/1 88/2/1 87/2/1
f 90/2/1 88/2/1 89/2/1
f 91/10/2 92/10/2 93/10/2
f 93/10/2 92/10/2 94/10/2
f 93/9/2 94/9/2 95/9/2
f 95/9/2 94/9/2 96/9/2
f 97/2/2 98/2/2 99/2/2
f 99/2/2 98/2/2 100/2/2
f 101/6/2 102/6/2 105/6/2
f 105/6/2 102/6/2 106/6/2
f 103/6/2 104/6/2 107/6/2
f 107/6/2 104/6/2 108/6/2
f 109/1/2 110/1/2 111/1/2
f 111/1/2 110/1/2 112/1/2
f 113/10/2 114/10/2 115/10/2
f 115/10/2 114/10/2 116/10/2
f 115/9/2 116/9/2 118/9/2
f 118/9/2 116/9/2 119/9/2
f 117/9/2 118/9/2 121/9/2
f 121/9/2 118/9/2 122/9/2
f 119/9/2 120/9/2 123/9/2
f 123/9/2 120/9/2 124/9/2
f 121/8/2 122/8/2 125/8/2
f 123/8/2 124/8/2 126/8/2
f 121/8/2 125/8/2 127/8/2
f 126/8/2 124/8/2 128/8/2
f 121/8/2 127/8/2 129/8/2
f 129/8/2 127/8/2 130/8/2
f 128/8/2 124/8/2 131/8/2
f 131/8/2 124/8/2 132/8/2
f 130/6/2 131/6/2 134/6/2
f 134/6/2 131/6/2 135/6/2
f 133/6/2 134/6/2 137/6/2
f 135/6/2 136/6/2 137/6/2
f 134/6/2 135/6/2 137/6/2
f 137/6/2 136/6/2 138/6/2
f 133/6/2 137/6/2 139/6/2
f 139/6/2 137/6/2 140/6/2
f 138/6/2 136/6/2 141/6/2
f 141/6/2 136/6/2 142/6/2
f 139/10/2 140/10/2 144/10/2
f 140/6/2 141/6/2 145/6/2
f 141/6/2 142/6/2 145/6/2
f 144/10/2 140/10/2 145/10/2
f 145/6/2 142/6/2 146/6/2
f 143/2/2 144/2/2 147/2/2
f 147/2/2 144/2/2 148/2/2
f 147/1/2 148/1/2 151/1/2
f 151/1/2 148/1/2 152/1/2
f 149/1/2 150/1/2 153/1/2
f 153/1/2 150/1/2 154/1/2
f 152/1/2 153/1/2 155/1/2
f 155/1/2 153/1/2 156/1/2
f 157/6/2 158/6/2 159/6/2
f 159/6/2 158/6/2 160/6/2
f 159/4/2 160/4/2 161/4/2
f 161/4/2 160/4/2 162/4/2
f 161/6/2 162/6/2 163/6/2
f 163/6/2 162/6/2 164/6/2
f 163/8/2 164/8/2 165/8/2
f 165/8/2 164/8/2 166/8/2
f 167/6/2 168/6/2 169/6/2
f 169/6/2 168/6/2 170/6/2
f 171/2/2 172/2/2 174/2/2
f 173/3/2 174/3/2 175/3/2
f 174/2/2 172/2/2 176/2/2
f 175/3/2 174/3/2 176/3/2
f 176/2/2 172/2/2 177/2/2
f 175/1/2 176/1/2 178/1/2
f 176/1/2 177/1/2 178/1/2
f 178/1/2 177/1/2 179/1/2
f 183/1/3 181/1/3 180/1/3
f 184/2/3 183/2/3 182/2/3
f 185/1/3 181/1/3 183/1/3
f 185/2/3 183/2/3 184/2/3
f 187/1/3 181/1/3 185/1/3
f 188/2/3 187/2/3 186/2/3
f 189/1/3 181/1/3 187/1/3
f 189/2/3 187/2/3 188/2/3
f 190/1/3 181/1/3 189/1/3
f 199/2/3 192/2/3 191/2/3
f 200/1/3 193/1/3 192/1/3
f 200/2/3 192/2/3 199/2/3
f 201/1/3 193/1/3 200/1/3
f 203/8/3 196/8/3 195/8/3
f 204/6/3 198/6/3 197/6/3
f 205/10/3 199/10/3 198/10/3
f 205/6/3 198/6/3 204/6/3
f 206/6/3 200/6/3 199/6/3
f 206/10/3 199/10/3 205/10/3
f 207/6/3 200/6/3 206/6/3
f 208/6/3 204/6/3 203/6/3
f 208/6/3 205/6/3 204/6/3
f 208/6/3 206/6/3 205/6/3
f 210/8/3 203/8/3 195/8/3
f 210/6/3 209/6/3 208/6/3
f 210/6/3 208/6/3 203/6/3
f 211/6/3 209/6/3 210/6/3
f 212/6/3 209/6/3 211/6/3
f 213/6/3 209/6/3 212/6/3
f 214/6/3 209/6/3 213/6/3
f 215/9/3 195/9/3 194/9/3
f 216/8/3 210/8/3 195/8/3
f 216/9/3 195/9/3 215/9/3
f 217/8/3 210/8/3 216/8/3
f 218/6/3 212/6/3 211/6/3
f 219/10/3 213/10/3 212/10/3
f 219/6/3 212/6/3 218/6/3
f 220/10/3 213/10/3 219/10/3
f 222/1/3 202/1/3 201/1/3
f 223/1/3 202/1/3 222/1/3
f 224/3/3 221/3/3 220/3/3
f 225/1/3 222/1/3 221/1/3
f 225/3/3 221/3/3 224/3/3
f 226/1/3 222/1/3 225/1/3
f 236/6/3 228/6/3 227/6/3
f 237/4/3 229/4/3 228/4/3
f 237/6/3 228/6/3 236/6/3
f 238/6/3 230/6/3 229/6/3
f 238/4/3 229/4/3 237/4/3
f 239/8/3 231/8/3 230/8/3
f 239/6/3 230/6/3 238/6/3
f 240/8/3 231/8/3 239/8/3
f 242/6/3 233/6/3 232/6/3
f 243/6/3 233/6/3 242/6/3
f 244/10/3 235/10/3 234/10/3
f 245/9/3 236/9/3 235/9/3
f 245/10/3 235/10/3 244/10/3
f 246/9/3 236/9/3 245/9/3
f 247/6/3 241/6/3 240/6/3
f 248/6/3 241/6/3 247/6/3
f 256/1/3 250/1/3 249/1/3
f 257/1/3 250/1/3 256/1/3
f 258/10/3 252/10/3 251/10/3
f 259/9/3 253/9/3 252/9/3
f 259/10/3 252/10/3 258/10/3
f 260/9/3 253/9/3 259/9/3
f 264/6/3 255/6/3 254/6/3
f 265/6/3 255/6/3 264/6/3
f 268/6/3 261/6/3 260/6/3
f 269/4/3 262/4/3 261/4/3
f 269/6/3 261/6/3 268/6/3
f 270/6/3 263/6/3 262/6/3
f 270/4/3 262/4/3 269/4/3
f 271/8/3 264/8/3 263/8/3
f 271/6/3 263/6/3 270/6/3
f 272/8/3 264/8/3 271/8/3
f 273/6/3 267/6/3 266/6/3
f 274/6/3 267/6/3 273/6/3
f 277/2/3 276/2/3 275/2/3
f 278/2/3 276/2/3 277/2/3
f 281/2/3 280/2/3 279/2/3
f 282/2/3 280/2/3 281/2/3
f 283/6/4 284/6/4 292/6/4
f 284/4/4 285/4/4 293/4/4
f 292/6/4 284/6/4 293/6/4
f 285/6/4 286/6/4 294/6/4
f 293/4/4 285/4/4 294/4/4
f 286/8/4 287/8/4 295/8/4
f 294/6/4 286/6/4 295/6/4
f 295/8/4 287/8/4 296/8/4
f 288/6/4 289/6/4 298/6/4
f 298/6/4 289/6/4 299/6/4
f 290/10/4 291/10/4 300/10/4
f 291/9/4 292/9/4 301/9/4
f 300/10/4 291/10/4 301/10/4
f 301/9/4 292/9/4 302/9/4
f 296/6/4 297/6/4 303/6/4
f 303/6/4 297/6/4 304/6/4
f 305/10/4 306/10/4 310/10/4
f 306/9/4 307/9/4 311/9/4
f 310/10/4 306/10/4 311/10/4
f 311/9/4 307/9/4 312/9/4
f 308/6/4 309/6/4 316/6/4
f 316/6/4 309/6/4 317/6/4
f 312/6/4 313/6/4 320/6/4
f 313/4/4 314/4/4 321/4/4
f 320/6/4 313/6/4 321/6/4
f 314/6/4 315/6/4 322/6/4
f 321/4/4 314/4/4 322/4/4
f 315/8/4 316/8/4 323/8/4
f 322/6/4 315/6/4 323/6/4
f 323/8/4 316/8/4 324/8/4
f 318/6/4 319/6/4 325/6/4
f 325/6/4 319/6/4 326/6/4
f 328/8/4 329/8/4 332/8/4
f 330/6/4 331/6/4 333/6/4
f 328/8/4 332/8/4 336/8/4
f 332/6/4 333/6/4 336/6/4
f 333/6/4 331/6/4 337/6/4
f 336/6/4 333/6/4 337/6/4
f 337/6/4 331/6/4 338/6/4
f 334/1/4 335/1/4 339/1/4
f 339/1/4 335/1/4 340/1/4
f 327/9/4 328/9/4 341/9/4
f 328/8/4 336/8/4 342/8/4
f 341/9/4 328/9/4 342/9/4
f 342/8/4 336/8/4 343/8/4
f 337/6/4 338/6/4 344/6/4
f 344/6/4 338/6/4 345/6/4
f 346/2/4 347/2/4 349/2/4
f 347/1/4 348/1/4 349/1/4
f 349/1/4 348/1/4 350/1/4
f 346/2/4 349/2/4 352/2/4
f 352/2/4 349/2/4 353/2/4
f 352/3/4 353/3/4 354/3/4
f 354/3/4 353/3/4 355/3/4
f 350/1/4 351/1/4 356/1/4
f 356/1/4 351/1/4 357/1/4
f 354/2/4 355/2/4 358/2/4
f 355/1/4 356/1/4 359/1/4
f 358/2/4 355/2/4 359/2/4
f 359/1/4 356/1/4 360/1/4
f 361/1/4 362/1/4 363/1/4
f 363/1/4 362/1/4 364/1/4
f 369/10/5 366/10/5 365/10/5
f 370/10/5 366/10/5 369/10/5
f 371/10/5 368/10/5 367/10/5
f 372/10/5 368/10/5 371/10/5
f 376/9/5 374/9/5 373/9/5
f 377/9/5 374/9/5 376/9/5
f 378/9/5 374/9/5 377/9/5
f 379/9/5 374/9/5 378/9/5
f 381/6/5 376/6/5 375/6/5
f 382/6/5 376/6/5 381/6/5
f 383/9/5 378/9/5 377/9/5
f 384/9/5 378/9/5 383/9/5
f 385/6/5 380/6/5 379/6/5
f 386/6/5 380/6/5 385/6/5
f 387/9/5 384/9/5 383/9/5
f 387/9/5 385/9/5 384/9/5
f 387/9/5 383/9/5 382/9/5
f 388/9/5 385/9/5 387/9/5
f 393/6/5 390/6/5 389/6/5
f 394/6/5 390/6/5 393/6/5
f 395/6/5 392/6/5 391/6/5
f 396/6/5 392/6/5 395/6/5
f 401/6/5 398/6/5 397/6/5
f 402/6/5 398/6/5 401/6/5
f 403/6/5 400/6/5 399/6/5
f 404/6/5 400/6/5 403/6/5
f 409/6/5 406/6/5 405/6/5
f 410/6/5 406/6/5 409/6/5
f 411/6/5 408/6/5 407/6/5
f 412/6/5 408/6/5 411/6/5
f 415/2/5 414/2/5 413/2/5
f 419/2/5 415/2/5 413/2/5
f 419/2/5 416/2/5 415/2/5
f 420/3/5 417/3/5 416/3/5
f 420/2/5 416/2/5 419/2/5
f 421/2/5 418/2/5 417/2/5
f 421/3/5 417/3/5 420/3/5
f 422/2/5 418/2/5 421/2/5
f 429/2/5 424/2/5 423/2/5
f 430/2/5 424/2/5 429/2/5
f 431/2/5 426/2/5 425/2/5
f 432/2/5 426/2/5 431/2/5
f 434/2/5 428/2/5 427/2/5
f 435/3/5 433/3/5 432/3/5
f 436/2/5 434/2/5 427/2/5
f 437/2/5 434/2/5 436/2/5
f 438/3/5 433/3/5 435/3/5
f 439/3/5 433/3/5 438/3/5
f 444/1/5 441/1/5 440/1/5
f 445/1/5 441/1/5 444/1/5
f 446/1/5 443/1/5 442/1/5
f 447/1/5 443/1/5 446/1/5
f 451/1/5 449/1/5 448/1/5
f 451/1/5 450/1/5 449/1/5
f 452/1/5 450/1/5 451/1/5
f 453/8/6 454/8/6 458/8/6
f 458/8/6 454/8/6 459/8/6
f 455/8/6 456/8/6 460/8/6
f 460/8/6 456/8/6 461/8/6
f 457/8/6 458/8/6 463/8/6
f 463/8/6 458/8/6 464/8/6
f 461/8/6 462/8/6 467/8/6
f 467/8/6 462/8/6 468/8/6
f 464/8/6 465/8/6 469/8/6
f 469/8/6 465/8/6 470/8/6
f 466/8/6 467/8/6 471/8/6
f 471/8/6 467/8/6 472/8/6
f 473/6/6 474/6/6 477/6/6
f 477/6/6 474/6/6 478/6/6
f 475/6/6 476/6/6 479/6/6
f 479/6/6 476/6/6 480/6/6
f 481/1/6 482/1/6 484/1/6
f 484/1/6 482/1/6 485/1/6
f 483/1/6 484/1/6 487/1/6
f 487/1/6 484/1/6 488/1/6
f 485/1/6 486/1/6 489/1/6
f 489/1/6 486/1/6 490/1/6
f 488/1/6 489/1/6 491/1/6
f 491/1/6 489/1/6 492/1/6
f 493/1/6 494/1/6 495/1/6
f 495/1/6 494/1/6 496/1/6
f 493/1/6 495/1/6 497/1/6
f 496/1/6 494/1/6 498/1/6
f 493/1/6 497/1/6 499/1/6
f 497/1/6 498/1/6 499/1/6
f 498/1/6 494/1/6 500/1/6
f 499/1/6 498/1/6 500/1/6
f 501/1/6 502/1/6 503/1/6
f 503/1/6 502/1/6 504/1/6
