# MagicaVoxel @ Ephtracy

# group
o 

# material
mtllib spot.mtl
usemtl palette

# normals
vn -1 0 0
vn 1 0 0
vn 0 0 1
vn 0 0 -1
vn 0 -1 0
vn 0 1 0

# texcoords
vt 0.0175781 0.5
vt 0.994141 0.5

# verts
v -0.2 3.6 -0.6
v -0.2 3.6 -0.9
v -0.2 3.8 -0.6
v -0.2 3.8 -0.9
v -0.1 0.1 0.3
v -0.1 0.1 0.1
v -0.1 3.5 0.1
v -0.1 3.5 -2.98023e-08
v -0.1 3.5 -0.7
v -0.1 3.5 -0.9
v -0.1 3.6 0.3
v -0.1 3.6 0.2
v -0.1 3.6 -2.98023e-08
v -0.1 3.6 -0.1
v -0.1 3.6 -0.7
v -0.1 3.6 -0.9
v -0.1 3.6 -1
v -0.1 3.7 0.2
v -0.1 3.7 0.1
v -0.1 3.7 -0.1
v -0.1 3.7 -0.6
v -0.1 3.8 0.1
v -0.1 3.8 -2.98023e-08
v -0.1 3.8 -0.5
v -0.1 3.8 -0.6
v -0.1 3.8 -0.9
v -0.1 3.8 -1
v -0.1 3.9 -2.98023e-08
v -0.1 3.9 -0.5
v 0.1 3.6 -0.6
v 0.1 3.6 -0.7
v 0.1 3.7 -0.6
v 0.1 3.7 -0.7
v -0.1 3.6 -0.6
v -0.1 3.6 -0.7
v -0.1 3.7 -0.6
v -0.1 3.7 -0.7
v 0.1 0.1 0.3
v 0.1 0.1 0.1
v 0.1 3.5 0.1
v 0.1 3.5 -2.98023e-08
v 0.1 3.5 -0.7
v 0.1 3.5 -0.9
v 0.1 3.6 0.3
v 0.1 3.6 0.2
v 0.1 3.6 -2.98023e-08
v 0.1 3.6 -0.1
v 0.1 3.6 -0.7
v 0.1 3.6 -0.9
v 0.1 3.6 -1
v 0.1 3.7 0.2
v 0.1 3.7 0.1
v 0.1 3.7 -0.1
v 0.1 3.7 -0.6
v 0.1 3.8 0.1
v 0.1 3.8 -2.98023e-08
v 0.1 3.8 -0.5
v 0.1 3.8 -0.6
v 0.1 3.8 -0.9
v 0.1 3.8 -1
v 0.1 3.9 -2.98023e-08
v 0.1 3.9 -0.5
v 0.2 3.6 -0.6
v 0.2 3.6 -0.9
v 0.2 3.8 -0.6
v 0.2 3.8 -0.9
v -0.1 0.1 0.3
v -0.1 3.6 0.3
v 0.1 0.1 0.3
v 0.1 3.6 0.3
v -0.1 3.6 0.2
v -0.1 3.7 0.2
v 0.1 3.6 0.2
v 0.1 3.7 0.2
v -0.1 3.7 0.1
v -0.1 3.8 0.1
v 0.1 3.7 0.1
v 0.1 3.8 0.1
v -0.1 3.8 -2.98023e-08
v -0.1 3.9 -2.98023e-08
v 0.1 3.8 -2.98023e-08
v 0.1 3.9 -2.98023e-08
v -0.2 3.6 -0.6
v -0.2 3.8 -0.6
v -0.1 3.6 -0.6
v -0.1 3.7 -0.6
v -0.1 3.8 -0.6
v 0.1 3.6 -0.6
v 0.1 3.7 -0.6
v 0.1 3.8 -0.6
v 0.2 3.6 -0.6
v 0.2 3.8 -0.6
v -0.1 3.5 -0.7
v -0.1 3.6 -0.7
v -0.1 3.7 -0.7
v 0.1 3.5 -0.7
v 0.1 3.6 -0.7
v 0.1 3.7 -0.7
v -0.1 0.1 0.1
v -0.1 3.5 0.1
v 0.1 0.1 0.1
v 0.1 3.5 0.1
v -0.1 3.5 -2.98023e-08
v -0.1 3.6 -2.98023e-08
v 0.1 3.5 -2.98023e-08
v 0.1 3.6 -2.98023e-08
v -0.1 3.6 -0.1
v -0.1 3.7 -0.1
v 0.1 3.6 -0.1
v 0.1 3.7 -0.1
v -0.1 3.8 -0.5
v -0.1 3.9 -0.5
v 0.1 3.8 -0.5
v 0.1 3.9 -0.5
v -0.2 3.6 -0.9
v -0.2 3.8 -0.9
v -0.1 3.5 -0.9
v -0.1 3.6 -0.9
v -0.1 3.8 -0.9
v 0.1 3.5 -0.9
v 0.1 3.6 -0.9
v 0.1 3.8 -0.9
v 0.2 3.6 -0.9
v 0.2 3.8 -0.9
v -0.1 3.6 -1
v -0.1 3.8 -1
v 0.1 3.6 -1
v 0.1 3.8 -1
v -0.1 0.1 0.3
v 0.1 0.1 0.3
v -0.1 0.1 0.1
v 0.1 0.1 0.1
v -0.1 3.5 0.1
v 0.1 3.5 0.1
v -0.1 3.5 -2.98023e-08
v 0.1 3.5 -2.98023e-08
v -0.1 3.5 -0.7
v 0.1 3.5 -0.7
v -0.1 3.5 -0.9
v 0.1 3.5 -0.9
v -0.1 3.6 -2.98023e-08
v 0.1 3.6 -2.98023e-08
v -0.1 3.6 -0.1
v 0.1 3.6 -0.1
v -0.2 3.6 -0.6
v -0.1 3.6 -0.6
v 0.1 3.6 -0.6
v 0.2 3.6 -0.6
v -0.1 3.6 -0.7
v 0.1 3.6 -0.7
v -0.2 3.6 -0.9
v -0.1 3.6 -0.9
v 0.1 3.6 -0.9
v 0.2 3.6 -0.9
v -0.1 3.6 -1
v 0.1 3.6 -1
v -0.1 3.7 -0.1
v 0.1 3.7 -0.1
v -0.1 3.7 -0.6
v 0.1 3.7 -0.6
v -0.1 3.7 -0.7
v 0.1 3.7 -0.7
v -0.1 3.6 0.3
v 0.1 3.6 0.3
v -0.1 3.6 0.2
v 0.1 3.6 0.2
v -0.1 3.7 0.2
v 0.1 3.7 0.2
v -0.1 3.7 0.1
v 0.1 3.7 0.1
v -0.1 3.8 0.1
v 0.1 3.8 0.1
v -0.1 3.8 -2.98023e-08
v 0.1 3.8 -2.98023e-08
v -0.1 3.8 -0.5
v 0.1 3.8 -0.5
v -0.2 3.8 -0.6
v -0.1 3.8 -0.6
v 0.1 3.8 -0.6
v 0.2 3.8 -0.6
v -0.2 3.8 -0.9
v -0.1 3.8 -0.9
v 0.1 3.8 -0.9
v 0.2 3.8 -0.9
v -0.1 3.8 -1
v 0.1 3.8 -1
v -0.1 3.9 -2.98023e-08
v 0.1 3.9 -2.98023e-08
v -0.1 3.9 -0.5
v 0.1 3.9 -0.5

# faces
f 3/2/1 2/2/1 1/2/1
f 4/2/1 2/2/1 3/2/1
f 7/2/1 6/2/1 5/2/1
f 11/2/1 7/2/1 5/2/1
f 11/2/1 8/2/1 7/2/1
f 12/2/1 8/2/1 11/2/1
f 13/2/1 8/2/1 12/2/1
f 15/1/1 10/1/1 9/1/1
f 16/1/1 10/1/1 15/1/1
f 18/2/1 14/2/1 13/2/1
f 18/2/1 13/2/1 12/2/1
f 19/2/1 14/2/1 18/2/1
f 20/2/1 14/2/1 19/2/1
f 22/2/1 21/2/1 20/2/1
f 22/2/1 20/2/1 19/2/1
f 23/2/1 21/2/1 22/2/1
f 24/2/1 21/2/1 23/2/1
f 25/2/1 21/2/1 24/2/1
f 26/2/1 17/2/1 16/2/1
f 27/2/1 17/2/1 26/2/1
f 28/2/1 24/2/1 23/2/1
f 29/2/1 24/2/1 28/2/1
f 32/2/1 31/2/1 30/2/1
f 33/2/1 31/2/1 32/2/1
f 34/2/2 35/2/2 36/2/2
f 36/2/2 35/2/2 37/2/2
f 38/2/2 39/2/2 40/2/2
f 38/2/2 40/2/2 44/2/2
f 40/2/2 41/2/2 44/2/2
f 44/2/2 41/2/2 45/2/2
f 45/2/2 41/2/2 46/2/2
f 42/1/2 43/1/2 48/1/2
f 48/1/2 43/1/2 49/1/2
f 46/2/2 47/2/2 51/2/2
f 45/2/2 46/2/2 51/2/2
f 51/2/2 47/2/2 52/2/2
f 52/2/2 47/2/2 53/2/2
f 53/2/2 54/2/2 55/2/2
f 52/2/2 53/2/2 55/2/2
f 55/2/2 54/2/2 56/2/2
f 56/2/2 54/2/2 57/2/2
f 57/2/2 54/2/2 58/2/2
f 49/2/2 50/2/2 59/2/2
f 59/2/2 50/2/2 60/2/2
f 56/2/2 57/2/2 61/2/2
f 61/2/2 57/2/2 62/2/2
f 63/2/2 64/2/2 65/2/2
f 65/2/2 64/2/2 66/2/2
f 69/2/3 68/2/3 67/2/3
f 70/2/3 68/2/3 69/2/3
f 73/2/3 72/2/3 71/2/3
f 74/2/3 72/2/3 73/2/3
f 77/2/3 76/2/3 75/2/3
f 78/2/3 76/2/3 77/2/3
f 81/2/3 80/2/3 79/2/3
f 82/2/3 80/2/3 81/2/3
f 85/2/3 84/2/3 83/2/3
f 86/2/3 84/2/3 85/2/3
f 87/2/3 84/2/3 86/2/3
f 91/2/3 89/2/3 88/2/3
f 91/2/3 90/2/3 89/2/3
f 92/2/3 90/2/3 91/2/3
f 96/1/3 94/1/3 93/1/3
f 96/1/3 95/1/3 94/1/3
f 97/1/3 95/1/3 96/1/3
f 98/1/3 95/1/3 97/1/3
f 99/2/4 100/2/4 101/2/4
f 101/2/4 100/2/4 102/2/4
f 103/2/4 104/2/4 105/2/4
f 105/2/4 104/2/4 106/2/4
f 107/2/4 108/2/4 109/2/4
f 109/2/4 108/2/4 110/2/4
f 111/2/4 112/2/4 113/2/4
f 113/2/4 112/2/4 114/2/4
f 115/2/4 116/2/4 118/2/4
f 118/2/4 116/2/4 119/2/4
f 117/1/4 118/1/4 120/1/4
f 120/1/4 118/1/4 121/1/4
f 121/2/4 122/2/4 123/2/4
f 123/2/4 122/2/4 124/2/4
f 125/2/4 126/2/4 127/2/4
f 127/2/4 126/2/4 128/2/4
f 131/2/5 130/2/5 129/2/5
f 132/2/5 130/2/5 131/2/5
f 135/2/5 134/2/5 133/2/5
f 136/2/5 134/2/5 135/2/5
f 139/1/5 138/1/5 137/1/5
f 140/1/5 138/1/5 139/1/5
f 143/2/5 142/2/5 141/2/5
f 144/2/5 142/2/5 143/2/5
f 149/2/5 146/2/5 145/2/5
f 150/2/5 148/2/5 147/2/5
f 151/2/5 149/2/5 145/2/5
f 152/2/5 149/2/5 151/2/5
f 153/2/5 148/2/5 150/2/5
f 154/2/5 148/2/5 153/2/5
f 155/2/5 153/2/5 152/2/5
f 156/2/5 153/2/5 155/2/5
f 159/2/5 158/2/5 157/2/5
f 160/2/5 158/2/5 159/2/5
f 161/2/5 160/2/5 159/2/5
f 162/2/5 160/2/5 161/2/5
f 163/2/6 164/2/6 165/2/6
f 165/2/6 164/2/6 166/2/6
f 167/2/6 168/2/6 169/2/6
f 169/2/6 168/2/6 170/2/6
f 171/2/6 172/2/6 173/2/6
f 173/2/6 172/2/6 174/2/6
f 175/2/6 176/2/6 178/2/6
f 178/2/6 176/2/6 179/2/6
f 178/2/6 179/2/6 181/2/6
f 179/2/6 180/2/6 181/2/6
f 177/2/6 178/2/6 181/2/6
f 181/2/6 180/2/6 182/2/6
f 182/2/6 180/2/6 183/2/6
f 183/2/6 180/2/6 184/2/6
f 182/2/6 183/2/6 185/2/6
f 185/2/6 183/2/6 186/2/6
f 187/2/6 188/2/6 189/2/6
f 189/2/6 188/2/6 190/2/6
